<svg xmlns="http://www.w3.org/2000/svg" width="92" height="129" viewBox="0 0 92 129" fill="none"><path d="M20.8602 30.6078L20.9994 31.8291L10.1528 33.0656C9.83025 33.1023 9.54319 32.8707 9.50683 32.5518L9.50022 32.4938C9.46346 32.1713 9.69507 31.8843 10.014 31.8479L20.8606 30.6115L20.8602 30.6078Z" fill="url(#paint0_linear_50_85)"></path><path style="mix-blend-mode:multiply" d="M20.8602 30.6078L20.9994 31.8291L10.1528 33.0656C9.83025 33.1023 9.54319 32.8707 9.50683 32.5518L9.50022 32.4938C9.46346 32.1713 9.69507 31.8843 10.014 31.8479L20.8606 30.6115L20.8602 30.6078Z" fill="url(#paint1_linear_50_85)"></path><path d="M22.1565 29.8596L22.4312 32.2695L19.9234 32.5554C19.2892 32.6277 18.7195 32.1713 18.6477 31.5408L18.6344 31.4248C18.5621 30.7906 19.0185 30.2209 19.6491 30.1491L22.1569 29.8632L22.1565 29.8596Z" fill="url(#paint2_linear_50_85)"></path><path style="mix-blend-mode:multiply" d="M22.1565 29.8596L22.4312 32.2695L19.9234 32.5554C19.2892 32.6277 18.7195 32.1713 18.6477 31.5408L18.6344 31.4248C18.5621 30.7906 19.0185 30.2209 19.6491 30.1491L22.1569 29.8632L22.1565 29.8596Z" fill="url(#paint3_linear_50_85)"></path><path d="M20.4308 30.9883C19.9779 27.025 20.8991 25.42 20.8991 25.42L23.7279 25.0979L24.3485 30.538L24.9692 35.9782L22.1405 36.3003C22.1405 36.3003 20.8849 34.9466 20.432 30.9833L20.4308 30.9883Z" fill="url(#paint4_linear_50_85)"></path><path style="mix-blend-mode:multiply" d="M20.4308 30.9883C19.9779 27.025 20.8991 25.42 20.8991 25.42L23.7279 25.0979L24.3485 30.538L24.9692 35.9782L22.1405 36.3003C22.1405 36.3003 20.8849 34.9466 20.432 30.9833L20.4308 30.9883Z" fill="url(#paint5_linear_50_85)"></path><path d="M51.4642 35.7085L49.6089 19.4331L40.7337 20.4448L42.589 36.7202L51.4642 35.7085Z" fill="url(#paint6_linear_50_85)"></path><path style="mix-blend-mode:multiply" d="M51.4642 35.7085L49.6089 19.4331L40.7337 20.4448L42.589 36.7202L51.4642 35.7085Z" fill="url(#paint7_linear_50_85)"></path><path d="M23.3084 30.6617C22.3503 22.2648 24.2339 20.3698 24.2339 20.3698L44.7594 18.0289L45.9039 28.0844L47.0484 38.1398L26.5229 40.4807C26.5229 40.4807 24.2615 39.0574 23.3034 30.6605L23.3084 30.6617Z" fill="url(#paint8_linear_50_85)"></path><path d="M10.777 31.7151C10.3372 31.0089 9.40819 30.7929 8.70197 31.2327C7.99576 31.6725 7.77978 32.6016 8.21959 33.3078C8.6594 34.014 9.58843 34.23 10.2946 33.7901C11.0009 33.3503 11.2168 32.4213 10.777 31.7151Z" fill="url(#paint9_radial_50_85)"></path><g style="mix-blend-mode:screen" opacity="0.38"><path d="M28.6756 19.8639L28.9672 19.8284C28.4201 22.2273 28.0024 25.7102 28.4988 30.0676C28.9681 34.1883 30.0804 37.5476 31.1263 39.9514L30.8378 39.985C29.7916 37.5599 28.6893 34.2029 28.2215 30.0985C27.7274 25.7654 28.1339 22.2852 28.6737 19.8608L28.6756 19.8639Z" fill="white"></path></g><g style="mix-blend-mode:multiply" opacity="0.38"><path d="M28.961 19.8322L29.2526 19.7968C28.7055 22.1957 28.2877 25.6786 28.7841 30.036C29.2534 34.1567 30.3658 37.516 31.4116 39.9198L31.1232 39.9534C30.077 37.5283 28.9747 34.1713 28.5069 30.0668C28.0128 25.7338 28.4193 22.2536 28.9591 19.8291L28.961 19.8322Z" fill="#1D1D1B"></path></g><path d="M45.2979 52.6751L37.3469 57.6267L76.8052 120.987L84.7562 116.035L45.2979 52.6751Z" fill="url(#paint10_linear_50_85)"></path><g style="mix-blend-mode:screen" opacity="0.38"><path d="M53.8322 66.3787L45.8812 71.3303L46.0528 71.6058L54.0038 66.6542L53.8322 66.3787Z" fill="white"></path></g><g style="mix-blend-mode:multiply" opacity="0.21"><path d="M53.6604 66.1032L45.7095 71.0547L45.8811 71.3303L53.832 66.3787L53.6604 66.1032Z" fill="#1D1D1B"></path></g><g style="mix-blend-mode:screen" opacity="0.38"><path d="M78.0672 105.294L70.1162 110.246L70.2878 110.521L78.2387 105.57L78.0672 105.294Z" fill="white"></path></g><g style="mix-blend-mode:multiply" opacity="0.21"><path d="M77.8926 105.021L69.9417 109.972L70.1132 110.248L78.0642 105.296L77.8926 105.021Z" fill="#1D1D1B"></path></g><g style="mix-blend-mode:screen" opacity="0.22"><path d="M77.5274 104.427L77.3398 105.223L76.0153 104.918L76.3255 103.595L77.1225 103.777L76.9297 103.468L76.3839 103.343L76.5132 102.799L76.3204 102.489L76.1327 103.285L74.8082 102.98L75.1185 101.656L75.9154 101.839L75.7226 101.529L75.1769 101.405L75.3061 100.861L75.1133 100.551L74.9257 101.347L73.6012 101.042L73.9115 99.7182L74.7084 99.9008L74.5156 99.5912L73.9699 99.467L74.0991 98.9225L73.9063 98.6128L73.7186 99.4086L72.3941 99.1034L72.7044 97.78L73.5013 97.9627L73.3085 97.653L72.7628 97.5288L72.892 96.9843L72.6992 96.6746L72.5116 97.4704L71.1871 97.1652L71.4974 95.8418L72.2943 96.0245L72.1015 95.7148L71.5558 95.5906L71.685 95.0461L71.4922 94.7364L71.3046 95.5322L69.9801 95.227L70.2903 93.9036L71.0873 94.0863L70.8944 93.7766L70.3487 93.6524L70.478 93.1079L70.2851 92.7982L70.0975 93.594L68.773 93.2888L69.0833 91.9654L69.8802 92.1481L69.6874 91.8384L69.1417 91.7142L69.2709 91.1697L69.0781 90.8601L68.8905 91.6558L67.566 91.3506L67.8763 90.0272L68.6732 90.2099L68.4804 89.9002L67.9347 89.776L68.0639 89.2315L67.8711 88.9219L67.6834 89.7176L66.3589 89.4124L66.6692 88.089L67.4661 88.2717L67.2733 87.962L66.7276 87.8378L66.8568 87.2933L66.664 86.9837L66.4764 87.7794L65.1519 87.4742L65.4622 86.1508L66.2591 86.3335L66.0663 86.0238L65.5206 85.8996L65.6498 85.3551L65.457 85.0455L65.2694 85.8412L63.9448 85.536L64.2551 84.2126L65.0521 84.3953L64.8592 84.0856L64.3135 83.9614L64.4428 83.4169L64.2499 83.1073L64.0623 83.903L62.7378 83.5978L63.0481 82.2744L63.845 82.4571L63.6522 82.1474L63.1065 82.0232L63.2357 81.4787L63.0429 81.1691L62.8553 81.9648L61.5308 81.6596L61.841 80.3362L62.638 80.5189L62.4452 80.2092L61.8994 80.085L62.0287 79.5405L61.8359 79.2309L61.6482 80.0266L60.3237 79.7214L60.634 78.398L61.4309 78.5807L61.2381 78.271L60.6924 78.1468L60.8216 77.6023L60.6288 77.2927L60.4412 78.0884L59.1167 77.7832L59.427 76.4598L60.2239 76.6425L60.0311 76.3329L59.4854 76.2086L59.6146 75.6641L59.4218 75.3545L59.2341 76.1502L57.9096 75.845L58.2199 74.5216L59.0169 74.7043L58.824 74.3947L58.2783 74.2704L58.4076 73.7259L58.2147 73.4163L58.0271 74.212L56.7026 73.9068L57.0129 72.5835L57.8098 72.7661L57.617 72.4565L57.0713 72.3322L57.2005 71.7877L57.0077 71.4781L56.8201 72.2738L55.4956 71.9686L55.8058 70.6453L56.6028 70.8279L56.41 70.5183L55.8642 70.394L55.9935 69.8495L55.8006 69.5399L55.613 70.3356L54.2885 70.0304L54.5988 68.7071L55.3957 68.8897L55.2029 68.5801L54.6572 68.4558L54.7864 67.9113L54.5936 67.6017L54.406 68.3974L53.0815 68.0922L53.3135 67.1055L53.0008 67.3002L52.8272 68.0357L52.0905 67.8671L51.7778 68.0619L52.7657 68.2889L52.4554 69.6122L51.1309 69.307L51.3629 68.3202L51.0502 68.515L50.8766 69.2505L50.1399 69.0819L49.8272 69.2766L50.8151 69.5036L50.5048 70.8269L49.1803 70.5217L49.4123 69.535L49.0996 69.7297L48.926 70.4652L48.1893 70.2966L47.8766 70.4914L48.8645 70.7184L48.5542 72.0417L47.2297 71.7365L47.4618 70.7498L47.149 70.9445L46.9754 71.68L46.2388 71.5114L46.053 71.6271L46.1321 71.754L46.9159 71.9362L46.7336 72.72L46.9265 73.0296L47.1702 71.9927L48.4947 72.298L48.1844 73.6213L47.1463 73.3826L47.3391 73.6922L48.1229 73.8744L47.9407 74.6582L48.1335 74.9678L48.3772 73.9309L49.7017 74.2361L49.3914 75.5595L48.3533 75.3208L48.5461 75.6304L49.3299 75.8126L49.1477 76.5964L49.3405 76.906L49.5843 75.8691L50.9087 76.1743L50.5985 77.4977L49.5604 77.259L49.7532 77.5686L50.537 77.7508L50.3548 78.5346L50.5476 78.8442L50.7913 77.8073L52.1158 78.1125L51.8055 79.4359L50.7674 79.1972L50.9602 79.5068L51.744 79.689L51.5618 80.4728L51.7546 80.7824L51.9983 79.7455L53.3228 80.0507L53.0126 81.3741L51.9744 81.1354L52.1673 81.445L52.9511 81.6272L52.7689 82.411L52.9617 82.7206L53.2054 81.6837L54.5299 81.9889L54.2196 83.3123L53.1815 83.0736L53.3743 83.3832L54.1581 83.5654L53.9759 84.3492L54.1687 84.6588L54.4124 83.6219L55.7369 83.9271L55.4266 85.2505L54.3885 85.0118L54.5813 85.3214L55.3651 85.5036L55.1829 86.2874L55.3758 86.597L55.6195 85.5601L56.9439 85.8653L56.6337 87.1887L55.5956 86.95L55.7884 87.2596L56.5722 87.4418L56.39 88.2256L56.5828 88.5352L56.8265 87.4983L58.151 87.8035L57.8407 89.1269L56.8026 88.8882L56.9954 89.1978L57.7792 89.38L57.597 90.1638L57.7898 90.4734L58.0335 89.4365L59.358 89.7417L59.0478 91.0651L58.0097 90.8264L58.2025 91.136L58.9863 91.3182L58.8041 92.102L58.9969 92.4116L59.2406 91.3747L60.5651 91.6799L60.2548 93.0033L59.2167 92.7646L59.4095 93.0742L60.1933 93.2564L60.0111 94.0402L60.2039 94.3498L60.4476 93.3129L61.7721 93.6181L61.4618 94.9415L60.4237 94.7028L60.6166 95.0124L61.4003 95.1946L61.2181 95.9784L61.411 96.288L61.6547 95.2511L62.9791 95.5563L62.6689 96.8797L61.6308 96.641L61.8236 96.9506L62.6074 97.1328L62.4252 97.9166L62.618 98.2262L62.8617 97.1893L64.1862 97.4945L63.8759 98.8178L62.8378 98.5792L63.0306 98.8888L63.8144 99.071L63.6322 99.8548L63.825 100.164L64.0687 99.1275L65.3932 99.4327L65.083 100.756L64.0449 100.517L64.2377 100.827L65.0215 101.009L64.8393 101.793L65.0321 102.103L65.2758 101.066L66.6003 101.371L66.29 102.694L65.2519 102.456L65.4447 102.765L66.2285 102.947L66.0463 103.731L66.2391 104.041L66.4828 103.004L67.8073 103.309L67.4971 104.632L66.4589 104.394L66.6518 104.703L67.4356 104.886L67.2533 105.669L67.4462 105.979L67.6899 104.942L69.0144 105.247L68.7041 106.571L67.666 106.332L67.8588 106.642L68.6426 106.824L68.4604 107.608L68.6532 107.917L68.8969 106.88L70.2214 107.186L69.9111 108.509L68.873 108.27L69.0658 108.58L69.8496 108.762L69.6674 109.546L69.8603 109.855L70.104 108.818L71.343 109.104L71.7641 108.842L72.0545 107.604L73.2936 107.889L73.7147 107.627L74.0051 106.389L75.2442 106.674L75.6653 106.412L75.9557 105.174L77.1948 105.46L77.6158 105.197L77.7221 104.74L77.5293 104.431L77.5274 104.427ZM74.8673 101.598L74.557 102.921L73.2325 102.616L73.5428 101.293L74.8673 101.598ZM67.6589 98.0132L67.9691 96.6899L69.2936 96.9951L68.9834 98.3184L67.6589 98.0132ZM70.5038 98.9314L70.1935 100.255L68.869 99.9495L69.1793 98.6261L70.5038 98.9314ZM66.4518 96.075L66.7621 94.7517L68.0866 95.0569L67.7763 96.3802L66.4518 96.075ZM65.2448 94.1368L65.555 92.8135L66.8796 93.1187L66.5693 94.442L65.2448 94.1368ZM64.0378 92.1986L64.348 90.8753L65.6725 91.1805L65.3622 92.5038L64.0378 92.1986ZM62.8307 90.2604L63.141 88.9371L64.4655 89.2423L64.1552 90.5656L62.8307 90.2604ZM61.6237 88.3222L61.9339 86.9989L63.2584 87.3041L62.9481 88.6274L61.6237 88.3222ZM60.4166 86.384L60.7269 85.0607L62.0514 85.3659L61.7411 86.6892L60.4166 86.384ZM59.2096 84.4458L59.5198 83.1225L60.8443 83.4277L60.5341 84.751L59.2096 84.4458ZM58.0026 82.5076L58.3128 81.1843L59.6373 81.4895L59.327 82.8128L58.0026 82.5076ZM56.7955 80.5694L57.1058 79.2461L58.4303 79.5513L58.12 80.8746L56.7955 80.5694ZM55.5885 78.6312L55.8987 77.3079L57.2232 77.6131L56.9129 78.9364L55.5885 78.6312ZM54.3814 76.693L54.6917 75.3697L56.0162 75.6749L55.7059 76.9983L54.3814 76.693ZM53.1744 74.7548L53.4846 73.4315L54.8091 73.7367L54.4989 75.0601L53.1744 74.7548ZM54.4405 75.3113L54.1302 76.6346L52.8057 76.3293L53.116 75.006L54.4405 75.3113ZM55.6475 77.2495L55.3373 78.5728L54.0127 78.2675L54.323 76.9442L55.6475 77.2495ZM56.8545 79.1877L56.5443 80.511L55.2198 80.2057L55.5301 78.8824L56.8545 79.1877V79.1877ZM58.0616 81.1259L57.7513 82.4492L56.4268 82.1439L56.7371 80.8206L58.0616 81.1259ZM59.2686 83.0641L58.9584 84.3874L57.6339 84.0821L57.9442 82.7588L59.2686 83.0641ZM60.4757 85.0023L60.1654 86.3256L58.8409 86.0203L59.1512 84.697L60.4757 85.0023ZM61.6827 86.9405L61.3725 88.2638L60.0479 87.9585L60.3582 86.6352L61.6827 86.9405ZM62.8897 88.8787L62.5795 90.202L61.255 89.8967L61.5653 88.5734L62.8897 88.8787ZM64.0968 90.8169L63.7865 92.1402L62.462 91.8349L62.7723 90.5116L64.0968 90.8169ZM65.3038 92.7551L64.9936 94.0784L63.6691 93.7731L63.9794 92.4498L65.3038 92.7551ZM66.5109 94.6933L66.2006 96.0166L64.8761 95.7113L65.1864 94.388L66.5109 94.6933ZM67.7179 96.6315L67.4077 97.9548L66.0831 97.6495L66.3934 96.3262L67.7179 96.6315ZM68.925 98.5697L68.6147 99.893L67.2902 99.5877L67.6005 98.2644L68.925 98.5697ZM70.132 100.508L69.8218 101.831L68.4972 101.526L68.8075 100.203L70.132 100.508ZM71.339 102.446L71.0288 103.769L69.7043 103.464L70.0146 102.141L71.339 102.446ZM70.073 101.89L70.3832 100.566L71.7077 100.871L71.3974 102.195L70.073 101.89ZM71.962 100.928L73.2865 101.233L72.9763 102.557L71.6518 102.251L71.962 100.928ZM70.4447 100.313L70.755 98.9898L72.0795 99.295L71.7692 100.618L70.4447 100.313ZM69.2377 98.3749L69.5479 97.0516L70.8725 97.3568L70.5622 98.6802L69.2377 98.3749V98.3749ZM68.0306 96.4367L68.3409 95.1134L69.6654 95.4186L69.3551 96.742L68.0306 96.4367ZM66.8236 94.4985L67.1339 93.1752L68.4584 93.4804L68.1481 94.8038L66.8236 94.4985ZM65.6165 92.5603L65.9268 91.237L67.2513 91.5422L66.941 92.8656L65.6165 92.5603ZM64.4095 90.6221L64.7198 89.2988L66.0443 89.604L65.734 90.9274L64.4095 90.6221ZM63.2025 88.6839L63.5127 87.3606L64.8372 87.6658L64.527 88.9892L63.2025 88.6839ZM61.9954 86.7457L62.3057 85.4224L63.6302 85.7276L63.3199 87.051L61.9954 86.7457ZM60.7884 84.8075L61.0987 83.4842L62.4232 83.7894L62.1129 85.1128L60.7884 84.8075ZM59.5813 82.8693L59.8916 81.546L61.2161 81.8512L60.9058 83.1746L59.5813 82.8693ZM58.3743 80.9311L58.6846 79.6078L60.0091 79.913L59.6988 81.2364L58.3743 80.9311ZM57.1673 78.9929L57.4775 77.6696L58.802 77.9748L58.4918 79.2982L57.1673 78.9929ZM55.9602 77.0547L56.2705 75.7314L57.595 76.0366L57.2847 77.36L55.9602 77.0547ZM54.7532 75.1165L55.0635 73.7932L56.388 74.0984L56.0777 75.4218L54.7532 75.1165ZM53.5461 73.1783L53.8564 71.855L55.1809 72.1602L54.8706 73.4836L53.5461 73.1783ZM53.2949 73.1199L51.9704 72.8147L52.2807 71.4913L53.6052 71.7966L53.2949 73.1199ZM53.2365 73.3711L52.9262 74.6945L51.6018 74.3892L51.912 73.0659L53.2365 73.3711ZM51.3474 74.3327L50.023 74.0275L50.3332 72.7042L51.6577 73.0094L51.3474 74.3327V74.3327ZM52.8648 74.9476L52.5545 76.2709L51.23 75.9657L51.5403 74.6424L52.8648 74.9476ZM54.0718 76.8858L53.7615 78.2091L52.437 77.9039L52.7473 76.5806L54.0718 76.8858ZM55.2789 78.824L54.9686 80.1473L53.6441 79.8421L53.9543 78.5188L55.2789 78.824ZM56.4859 80.7622L56.1756 82.0855L54.8511 81.7803L55.1614 80.457L56.4859 80.7622ZM57.6929 82.7004L57.3826 84.0237L56.0582 83.7185L56.3684 82.3952L57.6929 82.7004ZM58.9 84.6386L58.5897 85.9619L57.2652 85.6567L57.5755 84.3334L58.9 84.6386ZM60.107 86.5768L59.7967 87.9001L58.4722 87.5949L58.7825 86.2716L60.107 86.5768ZM61.3141 88.515L61.0038 89.8383L59.6793 89.5331L59.9895 88.2098L61.3141 88.515ZM62.5211 90.4532L62.2108 91.7765L60.8863 91.4713L61.1966 90.1479L62.5211 90.4532ZM63.7281 92.3914L63.4178 93.7147L62.0934 93.4095L62.4036 92.0861L63.7281 92.3914ZM64.9352 94.3296L64.6249 95.6529L63.3004 95.3477L63.6107 94.0243L64.9352 94.3296ZM66.1422 96.2678L65.8319 97.5911L64.5074 97.2859L64.8177 95.9625L66.1422 96.2678ZM67.3493 98.206L67.039 99.5293L65.7145 99.2241L66.0247 97.9007L67.3493 98.206ZM68.5563 100.144L68.246 101.468L66.9215 101.162L67.2318 99.8389L68.5563 100.144ZM69.7634 102.082L69.4531 103.406L68.1286 103.1L68.4388 101.777L69.7634 102.082ZM70.9704 104.021L70.6601 105.344L69.3356 105.039L69.6459 103.715L70.9704 104.021ZM71.2216 104.079L72.5461 104.384L72.2358 105.708L70.9113 105.402L71.2216 104.079ZM71.28 103.828L71.5903 102.504L72.9148 102.81L72.6045 104.133L71.28 103.828ZM73.1691 102.866L74.4936 103.171L74.1833 104.495L72.8588 104.189L73.1691 102.866ZM73.6583 99.6567L73.348 100.98L72.0235 100.675L72.3338 99.3515L73.6583 99.6567ZM72.4513 97.7185L72.141 99.0419L70.8165 98.7366L71.1268 97.4133L72.4513 97.7185ZM71.2442 95.7803L70.934 97.1037L69.6094 96.7984L69.9197 95.4751L71.2442 95.7803ZM70.0372 93.8421L69.7269 95.1655L68.4024 94.8602L68.7127 93.5369L70.0372 93.8421ZM68.8301 91.9039L68.5199 93.2273L67.1954 92.922L67.5056 91.5987L68.8301 91.9039ZM67.6231 89.9657L67.3128 91.2891L65.9883 90.9838L66.2986 89.6605L67.6231 89.9657ZM66.4161 88.0275L66.1058 89.3509L64.7813 89.0456L65.0916 87.7223L66.4161 88.0275ZM65.209 86.0893L64.8987 87.4127L63.5742 87.1074L63.8845 85.7841L65.209 86.0893ZM64.002 84.1511L63.6917 85.4745L62.3672 85.1692L62.6775 83.8459L64.002 84.1511ZM62.7949 82.2129L62.4847 83.5363L61.1602 83.231L61.4704 81.9077L62.7949 82.2129ZM61.5879 80.2747L61.2776 81.5981L59.9531 81.2928L60.2634 79.9695L61.5879 80.2747ZM60.3809 78.3366L60.0706 79.6599L58.7461 79.3546L59.0564 78.0313L60.3809 78.3366ZM59.1738 76.3984L58.8635 77.7217L57.539 77.4164L57.8493 76.0931L59.1738 76.3984ZM57.9668 74.4602L57.6565 75.7835L56.332 75.4782L56.6423 74.1549L57.9668 74.4602ZM56.7597 72.522L56.4495 73.8453L55.125 73.54L55.4352 72.2167L56.7597 72.522ZM55.5527 70.5838L55.2424 71.9071L53.9179 71.6018L54.2282 70.2785L55.5527 70.5838ZM53.0211 68.3403L54.3457 68.6456L54.0354 69.9689L52.7109 69.6636L53.0211 68.3403ZM53.977 70.2201L53.6667 71.5434L52.3422 71.2382L52.6525 69.9149L53.977 70.2201ZM51.0737 69.5531L52.3982 69.8584L52.0879 71.1817L50.7634 70.8765L51.0737 69.5531ZM52.0295 71.4329L51.7192 72.7563L50.3947 72.451L50.705 71.1277L52.0295 71.4329ZM49.1262 70.766L50.4507 71.0712L50.1404 72.3945L48.8159 72.0893L49.1262 70.766V70.766ZM48.4441 73.6658L48.7544 72.3424L50.0789 72.6477L49.7686 73.971L48.4441 73.6658ZM49.6512 75.604L49.9615 74.2806L51.286 74.5859L50.9757 75.9092L49.6512 75.604ZM50.8582 77.5422L51.1685 76.2188L52.493 76.5241L52.1827 77.8474L50.8582 77.5422ZM52.0653 79.4804L52.3755 78.157L53.7 78.4623L53.3898 79.7856L52.0653 79.4804ZM53.2723 81.4186L53.5826 80.0952L54.9071 80.4005L54.5968 81.7238L53.2723 81.4186V81.4186ZM54.4793 83.3568L54.7896 82.0334L56.1141 82.3387L55.8038 83.662L54.4793 83.3568ZM55.6864 85.295L55.9967 83.9716L57.3212 84.2769L57.0109 85.6002L55.6864 85.295ZM56.8934 87.2332L57.2037 85.9098L58.5282 86.2151L58.2179 87.5384L56.8934 87.2332ZM58.1005 89.1714L58.4107 87.848L59.7352 88.1533L59.425 89.4766L58.1005 89.1714ZM59.3075 91.1096L59.6178 89.7862L60.9423 90.0915L60.632 91.4148L59.3075 91.1096ZM60.5145 93.0478L60.8248 91.7244L62.1493 92.0297L61.839 93.353L60.5145 93.0478ZM61.7216 94.9859L62.0319 93.6626L63.3564 93.9679L63.0461 95.2912L61.7216 94.9859ZM62.9286 96.9241L63.2389 95.6008L64.5634 95.9061L64.2531 97.2294L62.9286 96.9241ZM64.1357 98.8623L64.4459 97.539L65.7705 97.8443L65.4602 99.1676L64.1357 98.8623ZM65.3427 100.801L65.653 99.4772L66.9775 99.7825L66.6672 101.106L65.3427 100.801ZM66.5497 102.739L66.86 101.415L68.1845 101.721L67.8743 103.044L66.5497 102.739ZM67.7568 104.677L68.0671 103.354L69.3916 103.659L69.0813 104.982L67.7568 104.677ZM68.9638 106.615L69.2741 105.292L70.5986 105.597L70.2883 106.92L68.9638 106.615ZM71.4954 108.859L70.1709 108.553L70.4812 107.23L71.8057 107.535L71.4954 108.859ZM70.5396 106.979L70.8498 105.655L72.1743 105.961L71.8641 107.284L70.5396 106.979V106.979ZM73.4429 107.646L72.1184 107.341L72.4287 106.017L73.7531 106.322L73.4429 107.646ZM72.4871 105.766L72.7973 104.443L74.1218 104.748L73.8115 106.071L72.4871 105.766ZM75.3903 106.433L74.0658 106.128L74.3761 104.804L75.7006 105.11L75.3903 106.433ZM74.4345 104.553L74.7448 103.23L76.0693 103.535L75.759 104.858L74.4345 104.553Z" fill="white"></path><path d="M54.1811 66.939L54.0056 66.6573L53.7208 66.8346L54.1811 66.939Z" fill="white"></path></g><g style="mix-blend-mode:multiply" opacity="0.21"><path d="M77.4411 105.186L77.5929 104.533L77.4001 104.223L77.1911 105.122L75.8747 104.816L76.1807 103.5L77.08 103.709L76.8872 103.399L76.2341 103.248L76.3859 102.594L76.1931 102.285L75.984 103.184L74.6676 102.878L74.9737 101.562L75.873 101.771L75.6802 101.461L75.027 101.309L75.1788 100.656L74.986 100.347L74.777 101.246L73.4606 100.94L73.7666 99.6236L74.666 99.8327L74.4731 99.523L73.82 99.3712L73.9718 98.718L73.779 98.4084L73.5699 99.3078L72.2535 99.0018L72.5596 97.6854L73.4589 97.8945L73.2661 97.5848L72.6129 97.433L72.7648 96.7798L72.5719 96.4702L72.3629 97.3696L71.0465 97.0636L71.3525 95.7472L72.2519 95.9563L72.0591 95.6467L71.4059 95.4948L71.5577 94.8416L71.3649 94.532L71.1559 95.4314L69.8394 95.1254L70.1455 93.809L71.0448 94.0181L70.852 93.7085L70.1989 93.5566L70.3507 92.9034L70.1579 92.5938L69.9488 93.4932L68.6324 93.1872L68.9385 91.8708L69.8378 92.0799L69.645 91.7703L68.9918 91.6184L69.1436 90.9652L68.9508 90.6556L68.7418 91.555L67.4254 91.249L67.7314 89.9326L68.6307 90.1417L68.4379 89.8321L67.7848 89.6802L67.9366 89.0271L67.7438 88.7174L67.5347 89.6168L66.2183 89.3108L66.5244 87.9944L67.4237 88.2035L67.2309 87.8939L66.5777 87.742L66.7296 87.0889L66.5367 86.7792L66.3277 87.6786L65.0113 87.3726L65.3173 86.0562L66.2167 86.2653L66.0238 85.9557L65.3707 85.8038L65.5225 85.1507L65.3297 84.841L65.1207 85.7404L63.8042 85.4344L64.1103 84.118L65.0096 84.3271L64.8168 84.0175L64.1637 83.8656L64.3155 83.2125L64.1227 82.9028L63.9136 83.8022L62.5972 83.4962L62.9032 82.1798L63.8026 82.3889L63.6098 82.0793L62.9566 81.9274L63.1084 81.2743L62.9156 80.9646L62.7066 81.864L61.3902 81.558L61.6962 80.2416L62.5955 80.4507L62.4027 80.1411L61.7496 79.9892L61.9014 79.3361L61.7086 79.0264L61.4995 79.9258L60.1831 79.6198L60.4892 78.3034L61.3885 78.5125L61.1957 78.2029L60.5425 78.051L60.6944 77.3979L60.5015 77.0882L60.2925 77.9876L58.9761 77.6816L59.2821 76.3652L60.1815 76.5743L59.9886 76.2647L59.3355 76.1128L59.4873 75.4597L59.2945 75.15L59.0854 76.0494L57.769 75.7434L58.0751 74.427L58.9744 74.6361L58.7816 74.3265L58.1285 74.1746L58.2803 73.5215L58.0875 73.2118L57.8784 74.1112L56.562 73.8052L56.868 72.4888L57.7674 72.6979L57.5746 72.3883L56.9214 72.2364L57.0732 71.5833L56.8804 71.2736L56.6714 72.173L55.355 71.867L55.661 70.5506L56.5603 70.7597L56.3675 70.4501L55.7144 70.2982L55.8662 69.6451L55.6734 69.3354L55.4643 70.2348L54.1479 69.9288L54.454 68.6124L55.3533 68.8215L55.1605 68.5119L54.5073 68.36L54.6591 67.7069L54.4663 67.3973L54.2573 68.2966L52.9409 67.9906L53.1686 67.0108L52.859 67.2037L52.6885 67.9372L51.9549 67.7667L51.6453 67.9595L52.6251 68.1873L52.3191 69.5036L51.0027 69.1976L51.2304 68.2179L50.9208 68.4107L50.7503 69.1443L50.0167 68.9737L49.7071 69.1666L50.6869 69.3943L50.3809 70.7107L49.0645 70.4047L49.2922 69.4249L48.9826 69.6177L48.8121 70.3513L48.0786 70.1808L47.7689 70.3736L48.7487 70.6013L48.4427 71.9177L47.1263 71.6117L47.354 70.632L47.0444 70.8248L46.8739 71.5583L46.1404 71.3878L45.9577 71.5016L46.0348 71.6254L46.8136 71.8065L46.6325 72.5852L46.8254 72.8949L47.0648 71.8649L48.3812 72.1709L48.0752 73.4873L47.0452 73.2478L47.238 73.5574L48.0168 73.7385L47.8357 74.5172L48.0285 74.8269L48.268 73.7969L49.5844 74.1029L49.2784 75.4193L48.2483 75.1798L48.4412 75.4894L49.22 75.6705L49.0389 76.4493L49.2317 76.7589L49.4712 75.7289L50.7875 76.0349L50.4815 77.3513L49.4515 77.1118L49.6444 77.4214L50.4231 77.6025L50.2421 78.3813L50.4349 78.6909L50.6744 77.6609L51.9907 77.9669L51.6847 79.2833L50.6547 79.0438L50.8475 79.3535L51.6263 79.5345L51.4453 80.3133L51.6381 80.6229L51.8775 79.5929L53.1939 79.8989L52.8879 81.2153L51.8579 80.9758L52.0507 81.2855L52.8295 81.4665L52.6485 82.2453L52.8413 82.5549L53.0807 81.5249L54.3971 81.8309L54.0911 83.1473L53.0611 82.9079L53.2539 83.2175L54.0327 83.3985L53.8516 84.1773L54.0445 84.4869L54.2839 83.4569L55.6003 83.7629L55.2943 85.0793L54.2643 84.8399L54.4571 85.1495L55.2359 85.3305L55.0548 86.1093L55.2476 86.4189L55.4871 85.3889L56.8035 85.6949L56.4975 87.0113L55.4675 86.7719L55.6603 87.0815L56.4391 87.2625L56.258 88.0413L56.4508 88.3509L56.6903 87.3209L58.0067 87.6269L57.7006 88.9433L56.6706 88.7039L56.8635 89.0135L57.6423 89.1945L57.4612 89.9733L57.654 90.2829L57.8935 89.2529L59.2098 89.5589L58.9038 90.8753L57.8738 90.6359L58.0666 90.9455L58.8454 91.1265L58.6644 91.9053L58.8572 92.2149L59.0967 91.1849L60.413 91.4909L60.107 92.8073L59.077 92.5679L59.2698 92.8775L60.0486 93.0585L59.8676 93.8373L60.0604 94.1469L60.2998 93.1169L61.6162 93.4229L61.3102 94.7393L60.2802 94.4999L60.473 94.8095L61.2518 94.9905L61.0708 95.7693L61.2636 96.0789L61.503 95.0489L62.8194 95.3549L62.5134 96.6713L61.4834 96.4319L61.6762 96.7415L62.455 96.9225L62.2739 97.7013L62.4668 98.0109L62.7062 96.9809L64.0226 97.287L63.7166 98.6033L62.6866 98.3639L62.8794 98.6735L63.6582 98.8545L63.4771 99.6333L63.6699 99.9429L63.9094 98.9129L65.2258 99.219L64.9198 100.535L63.8898 100.296L64.0826 100.606L64.8614 100.787L64.6803 101.565L64.8731 101.875L65.1126 100.845L66.429 101.151L66.1229 102.467L65.0929 102.228L65.2858 102.538L66.0645 102.719L65.8835 103.497L66.0763 103.807L66.3158 102.777L67.6321 103.083L67.3261 104.399L66.2961 104.16L66.4889 104.47L67.2677 104.651L67.0867 105.429L67.2795 105.739L67.5189 104.709L68.8353 105.015L68.5293 106.331L67.4993 106.092L67.6921 106.402L68.4709 106.583L68.2899 107.361L68.4827 107.671L68.7221 106.641L70.0385 106.947L69.7325 108.263L68.7025 108.024L68.8953 108.334L69.6741 108.515L69.493 109.293L69.6859 109.603L69.9253 108.573L71.2417 108.879L71.2102 109.015L71.687 108.718L71.5513 108.686L71.8573 107.37L73.1737 107.676L73.1422 107.811L73.619 107.515L73.4833 107.483L73.7893 106.167L75.1057 106.473L75.0742 106.608L75.551 106.311L75.4153 106.28L75.7213 104.963L77.0377 105.269L77.0062 105.405L77.483 105.108L77.3473 105.077L77.4411 105.186ZM74.7251 101.515L74.4191 102.831L73.1027 102.525L73.4088 101.209L74.7251 101.515ZM67.5611 97.9321L67.8672 96.6158L69.1836 96.9218L68.8775 98.2382L67.5611 97.9321ZM70.3868 98.8538L70.0807 100.17L68.7643 99.8642L69.0703 98.5478L70.3868 98.8538ZM66.358 96.0001L66.664 94.6838L67.9804 94.9898L67.6743 96.3062L66.358 96.0001ZM65.1548 94.0681L65.4608 92.7518L66.7772 93.0577L66.4712 94.3741L65.1548 94.0681ZM63.9516 92.1361L64.2576 90.8198L65.574 91.1257L65.268 92.4421L63.9516 92.1361ZM62.7484 90.2041L63.0544 88.8877L64.3708 89.1937L64.0648 90.5101L62.7484 90.2041ZM61.5452 88.2721L61.8512 86.9557L63.1676 87.2617L62.8616 88.5781L61.5452 88.2721ZM60.342 86.3401L60.648 85.0237L61.9645 85.3297L61.6584 86.6461L60.342 86.3401ZM59.1388 84.4081L59.4449 83.0917L60.7613 83.3977L60.4552 84.7141L59.1388 84.4081ZM57.9357 82.4761L58.2417 81.1597L59.5581 81.4657L59.252 82.7821L57.9357 82.4761ZM56.7325 80.5441L57.0385 79.2277L58.3549 79.5337L58.0489 80.8501L56.7325 80.5441ZM55.5293 78.6121L55.8353 77.2957L57.1517 77.6017L56.8457 78.9181L55.5293 78.6121ZM54.3261 76.6801L54.6321 75.3637L55.9485 75.6697L55.6425 76.9861L54.3261 76.6801ZM53.1229 74.7481L53.4289 73.4317L54.7454 73.7377L54.4393 75.0541L53.1229 74.7481ZM54.3809 75.3053L54.0749 76.6217L52.7585 76.3157L53.0645 74.9993L54.3809 75.3053ZM55.5841 77.2373L55.2781 78.5537L53.9617 78.2477L54.2677 76.9313L55.5841 77.2373ZM56.7873 79.1693L56.4813 80.4857L55.1649 80.1797L55.4709 78.8633L56.7873 79.1693V79.1693ZM57.9905 81.1013L57.6844 82.4177L56.3681 82.1117L56.6741 80.7953L57.9905 81.1013ZM59.1936 83.0333L58.8876 84.3497L57.5713 84.0437L57.8773 82.7273L59.1936 83.0333ZM60.3968 84.9653L60.0908 86.2817L58.7745 85.9757L59.0805 84.6593L60.3968 84.9653ZM61.6 86.8973L61.294 88.2137L59.9776 87.9077L60.2836 86.5913L61.6 86.8973ZM62.8032 88.8293L62.4972 90.1457L61.1808 89.8397L61.4868 88.5233L62.8032 88.8293ZM64.0064 90.7614L63.7004 92.0777L62.384 91.7717L62.69 90.4553L64.0064 90.7614ZM65.2096 92.6934L64.9036 94.0097L63.5872 93.7037L63.8932 92.3873L65.2096 92.6934ZM66.4128 94.6254L66.1067 95.9417L64.7904 95.6357L65.0964 94.3194L66.4128 94.6254ZM67.6159 96.5574L67.3099 97.8737L65.9936 97.5677L66.2996 96.2514L67.6159 96.5574ZM68.8191 98.4894L68.5131 99.8058L67.1968 99.4997L67.5027 98.1834L68.8191 98.4894ZM70.0223 100.421L69.7163 101.738L68.3999 101.432L68.7059 100.115L70.0223 100.421ZM71.2255 102.353L70.9195 103.67L69.6031 103.364L69.9091 102.047L71.2255 102.353ZM69.9675 101.796L70.2735 100.48L71.5899 100.786L71.2839 102.102L69.9675 101.796ZM71.8412 100.844L73.1575 101.15L72.8515 102.467L71.5351 102.161L71.8412 100.844ZM70.3319 100.229L70.638 98.9122L71.9543 99.2182L71.6483 100.535L70.3319 100.229ZM69.1287 98.2966L69.4348 96.9802L70.7512 97.2862L70.4452 98.6025L69.1287 98.2966V98.2966ZM67.9256 96.3646L68.2316 95.0482L69.548 95.3542L69.242 96.6705L67.9256 96.3646ZM66.7224 94.4325L67.0284 93.1161L68.3448 93.4222L68.0388 94.7385L66.7224 94.4325ZM65.5192 92.5005L65.8252 91.1841L67.1416 91.4902L66.8356 92.8065L65.5192 92.5005ZM64.316 90.5685L64.622 89.2521L65.9384 89.5581L65.6324 90.8745L64.316 90.5685ZM63.1128 88.6365L63.4189 87.3201L64.7352 87.6261L64.4292 88.9425L63.1128 88.6365ZM61.9096 86.7045L62.2157 85.3881L63.5321 85.6941L63.226 87.0105L61.9096 86.7045ZM60.7064 84.7725L61.0125 83.4561L62.3289 83.7621L62.0229 85.0785L60.7064 84.7725ZM59.5033 82.8405L59.8093 81.5241L61.1257 81.8301L60.8197 83.1465L59.5033 82.8405ZM58.3001 80.9085L58.6061 79.5921L59.9225 79.8981L59.6165 81.2145L58.3001 80.9085ZM57.0969 78.9765L57.4029 77.6601L58.7193 77.9661L58.4133 79.2825L57.0969 78.9765ZM55.8937 77.0445L56.1998 75.7281L57.5161 76.0341L57.2101 77.3505L55.8937 77.0445ZM54.6905 75.1125L54.9966 73.7961L56.3129 74.1021L56.0069 75.4185L54.6905 75.1125ZM53.4873 73.1805L53.7934 71.8641L55.1098 72.1701L54.8038 73.4865L53.4873 73.1805ZM53.2361 73.1221L51.9197 72.8161L52.2258 71.4997L53.5422 71.8057L53.2361 73.1221ZM53.1777 73.3733L52.8717 74.6897L51.5553 74.3837L51.8613 73.0673L53.1777 73.3733ZM51.3041 74.3253L49.9878 74.0192L50.2938 72.7029L51.6101 73.0089L51.3041 74.3253V74.3253ZM52.8133 74.9409L52.5073 76.2573L51.1909 75.9512L51.497 74.6349L52.8133 74.9409ZM54.0165 76.8729L53.7105 78.1893L52.3941 77.8833L52.7001 76.5669L54.0165 76.8729ZM55.2197 78.8049L54.9137 80.1213L53.5973 79.8153L53.9033 78.4989L55.2197 78.8049ZM56.4229 80.7369L56.1169 82.0533L54.8005 81.7473L55.1065 80.4309L56.4229 80.7369ZM57.626 82.6689L57.3201 83.9853L56.0037 83.6793L56.3097 82.3629L57.626 82.6689ZM58.8292 84.6009L58.5232 85.9173L57.2069 85.6113L57.5129 84.2949L58.8292 84.6009ZM60.0324 86.5329L59.7264 87.8493L58.4101 87.5433L58.7161 86.2269L60.0324 86.5329ZM61.2356 88.4649L60.9296 89.7813L59.6132 89.4753L59.9192 88.1589L61.2356 88.4649ZM62.4388 90.3969L62.1328 91.7133L60.8164 91.4073L61.1224 90.0909L62.4388 90.3969ZM63.642 92.3289L63.336 93.6453L62.0196 93.3393L62.3256 92.0229L63.642 92.3289ZM64.8452 94.261L64.5392 95.5773L63.2228 95.2713L63.5288 93.9549L64.8452 94.261ZM66.0483 96.193L65.7424 97.5093L64.426 97.2033L64.732 95.8869L66.0483 96.193ZM67.2515 98.125L66.9455 99.4413L65.6292 99.1353L65.9352 97.8189L67.2515 98.125ZM68.4547 100.057L68.1487 101.373L66.8323 101.067L67.1384 99.7509L68.4547 100.057ZM69.6579 101.989L69.3519 103.305L68.0355 102.999L68.3415 101.683L69.6579 101.989ZM70.8611 103.921L70.5551 105.237L69.2387 104.931L69.5447 103.615L70.8611 103.921ZM71.1123 103.979L72.4287 104.285L72.1227 105.602L70.8063 105.296L71.1123 103.979ZM71.1707 103.728L71.4767 102.412L72.7931 102.718L72.4871 104.034L71.1707 103.728ZM73.0443 102.776L74.3607 103.082L74.0547 104.399L72.7383 104.093L73.0443 102.776ZM73.5219 99.5826L73.2159 100.899L71.8996 100.593L72.2056 99.2766L73.5219 99.5826ZM72.3188 97.6506L72.0127 98.967L70.6964 98.6609L71.0024 97.3446L72.3188 97.6506ZM71.1156 95.7186L70.8096 97.035L69.4932 96.7289L69.7992 95.4126L71.1156 95.7186ZM69.9124 93.7866L69.6064 95.1029L68.29 94.7969L68.596 93.4806L69.9124 93.7866ZM68.7092 91.8546L68.4032 93.1709L67.0868 92.8649L67.3928 91.5486L68.7092 91.8546ZM67.506 89.9226L67.2 91.2389L65.8836 90.9329L66.1896 89.6165L67.506 89.9226ZM66.3028 87.9906L65.9968 89.3069L64.6804 89.0009L64.9865 87.6845L66.3028 87.9906ZM65.0996 86.0585L64.7936 87.3749L63.4773 87.0689L63.7833 85.7525L65.0996 86.0585ZM63.8965 84.1265L63.5905 85.4429L62.2741 85.1369L62.5801 83.8205L63.8965 84.1265ZM62.6933 82.1945L62.3873 83.5109L61.0709 83.2049L61.3769 81.8885L62.6933 82.1945ZM61.4901 80.2625L61.1841 81.5789L59.8677 81.2729L60.1737 79.9565L61.4901 80.2625ZM60.2869 78.3305L59.9809 79.6469L58.6645 79.3409L58.9705 78.0245L60.2869 78.3305ZM59.0837 76.3985L58.7777 77.7149L57.4613 77.4089L57.7673 76.0925L59.0837 76.3985ZM57.8805 74.4665L57.5745 75.7829L56.2582 75.4769L56.5642 74.1605L57.8805 74.4665ZM56.6774 72.5345L56.3713 73.8509L55.055 73.5449L55.361 72.2285L56.6774 72.5345ZM55.4742 70.6025L55.1682 71.9189L53.8518 71.6129L54.1578 70.2965L55.4742 70.6025ZM52.9546 68.3645L54.271 68.6705L53.965 69.9869L52.6486 69.6809L52.9546 68.3645ZM53.9066 70.2381L53.6006 71.5545L52.2842 71.2485L52.5902 69.9321L53.9066 70.2381ZM51.0226 69.5677L52.339 69.8737L52.0329 71.1901L50.7166 70.8841L51.0226 69.5677ZM51.9745 71.4413L51.6685 72.7577L50.3522 72.4516L50.6582 71.1353L51.9745 71.4413ZM49.0906 70.7709L50.4069 71.0769L50.1009 72.3932L48.7846 72.0872L49.0906 70.7709V70.7709ZM48.4202 73.6548L48.7262 72.3385L50.0426 72.6445L49.7365 73.9608L48.4202 73.6548ZM49.6233 75.5868L49.9294 74.2705L51.2457 74.5765L50.9397 75.8928L49.6233 75.5868ZM50.8265 77.5188L51.1325 76.2025L52.4489 76.5085L52.1429 77.8249L50.8265 77.5188ZM52.0297 79.4508L52.3357 78.1345L53.6521 78.4405L53.3461 79.7569L52.0297 79.4508ZM53.2329 81.3829L53.5389 80.0665L54.8553 80.3725L54.5493 81.6889L53.2329 81.3829V81.3829ZM54.4361 83.3149L54.7421 81.9985L56.0585 82.3045L55.7525 83.6209L54.4361 83.3149ZM55.6393 85.2469L55.9453 83.9305L57.2617 84.2365L56.9556 85.5529L55.6393 85.2469ZM56.8425 87.1789L57.1485 85.8625L58.4648 86.1685L58.1588 87.4849L56.8425 87.1789ZM58.0456 89.1109L58.3517 87.7945L59.668 88.1005L59.362 89.4169L58.0456 89.1109ZM59.2488 91.0429L59.5548 89.7265L60.8712 90.0325L60.5652 91.3489L59.2488 91.0429ZM60.452 92.9749L60.758 91.6585L62.0744 91.9645L61.7684 93.2809L60.452 92.9749ZM61.6552 94.9069L61.9612 93.5905L63.2776 93.8965L62.9716 95.2129L61.6552 94.9069ZM62.8584 96.8389L63.1644 95.5225L64.4808 95.8285L64.1748 97.1449L62.8584 96.8389ZM64.0616 98.7709L64.3676 97.4545L65.684 97.7605L65.3779 99.0769L64.0616 98.7709ZM65.2648 100.703L65.5708 99.3865L66.8871 99.6926L66.5811 101.009L65.2648 100.703ZM66.4679 102.635L66.7739 101.319L68.0903 101.625L67.7843 102.941L66.4679 102.635ZM67.6711 104.567L67.9771 103.251L69.2935 103.557L68.9875 104.873L67.6711 104.567ZM68.8743 106.499L69.1803 105.183L70.4967 105.489L70.1907 106.805L68.8743 106.499ZM71.3939 108.737L70.0775 108.431L70.3835 107.115L71.6999 107.421L71.3939 108.737ZM70.4419 106.863L70.7479 105.547L72.0643 105.853L71.7583 107.169L70.4419 106.863V106.863ZM73.3259 107.534L72.0095 107.228L72.3155 105.911L73.6319 106.217L73.3259 107.534ZM72.3739 105.66L72.6799 104.344L73.9963 104.65L73.6903 105.966L72.3739 105.66ZM75.2579 106.331L73.9415 106.025L74.2475 104.708L75.5639 105.014L75.2579 106.331ZM74.3059 104.457L74.6119 103.141L75.9283 103.447L75.6223 104.763L74.3059 104.457Z" fill="#1D1D1B"></path><path d="M54.0306 66.6975L53.9653 66.6824L53.6557 66.8752L54.2234 67.0072L54.0306 66.6975Z" fill="#1D1D1B"></path></g><path d="M37.3467 57.6268L35.8225 39.4201L40.8106 38.8532L45.2976 52.6752L37.3467 57.6268Z" fill="url(#paint11_linear_50_85)"></path><g clip-path="url(#clip0_50_85)"><path d="M62.3904 34.8023L63.1737 35.2696L54.8293 49.2577L54.0459 48.7905L62.3904 34.8023Z" fill="url(#paint12_linear_50_85)"></path><path d="M46.618 54.7986L53.0696 58.6472L15.7367 121.23L9.28515 117.381L46.618 54.7986Z" fill="url(#paint13_linear_50_85)"></path><g style="mix-blend-mode:screen" opacity="0.38"><path d="M38.5412 68.3382L44.9928 72.1868L44.8298 72.46L38.3782 68.6114L38.5412 68.3382Z" fill="white"></path></g><g style="mix-blend-mode:multiply" opacity="0.21"><path d="M38.705 68.0634L45.1566 71.912L44.9936 72.1852L38.542 68.3366L38.705 68.0634Z" fill="#1D1D1B"></path></g><g style="mix-blend-mode:screen" opacity="0.38"><path d="M15.6126 106.774L22.0642 110.623L21.9012 110.896L15.4496 107.048L15.6126 106.774Z" fill="white"></path></g><g style="mix-blend-mode:multiply" opacity="0.21"><path d="M15.7764 106.5L22.228 110.348L22.065 110.621L15.6135 106.773L15.7764 106.5Z" fill="#1D1D1B"></path></g><g style="mix-blend-mode:screen" opacity="0.22"><path d="M16.1257 105.918L16.237 106.639L17.3799 106.231L17.1961 105.032L16.5082 105.277L16.691 104.97L17.1611 104.803L17.0848 104.31L17.2676 104.004L17.3789 104.725L18.5217 104.317L18.338 103.118L17.6501 103.362L17.8329 103.056L18.303 102.889L18.2267 102.396L18.4094 102.09L18.5207 102.811L19.6636 102.403L19.4798 101.203L18.792 101.448L18.9747 101.142L19.4449 100.975L19.3685 100.482L19.5513 100.175L19.6626 100.897L20.8055 100.489L20.6217 99.2892L19.9338 99.5341L20.1166 99.2277L20.5867 99.0607L20.5104 98.5676L20.6932 98.2612L20.8045 98.9828L21.9473 98.5746L21.7635 97.3751L21.0757 97.62L21.2585 97.3136L21.7286 97.1465L21.6523 96.6534L21.835 96.347L21.9463 97.0687L23.0892 96.6605L22.9054 95.4609L22.2175 95.7058L22.4003 95.3994L22.8704 95.2324L22.7941 94.7393L22.9769 94.4329L23.0882 95.1545L24.231 94.7463L24.0473 93.5468L23.3594 93.7917L23.5422 93.4853L24.0123 93.3182L23.936 92.8251L24.1188 92.5187L24.23 93.2404L25.3729 92.8322L25.1891 91.6326L24.5013 91.8775L24.684 91.5711L25.1542 91.404L25.0778 90.911L25.2606 90.6046L25.3719 91.3262L26.5148 90.918L26.331 89.7185L25.6431 89.9634L25.8259 89.657L26.296 89.4899L26.2197 88.9968L26.4025 88.6904L26.5138 89.4121L27.6566 89.0039L27.4729 87.8043L26.785 88.0492L26.9678 87.7428L27.4379 87.5757L27.3616 87.0827L27.5443 86.7763L27.6556 87.4979L28.7985 87.0897L28.6147 85.8902L27.9269 86.1351L28.1096 85.8287L28.5798 85.6616L28.5034 85.1685L28.6862 84.8621L28.7975 85.5838L29.9404 85.1756L29.7566 83.976L29.0687 84.2209L29.2515 83.9145L29.7216 83.7474L29.6453 83.2544L29.8281 82.948L29.9394 83.6696L31.0822 83.2614L30.8984 82.0619L30.2106 82.3068L30.3933 82.0004L30.8635 81.8333L30.7872 81.3402L30.9699 81.0338L31.0812 81.7555L32.2241 81.3473L32.0403 80.1477L31.3524 80.3926L31.5352 80.0862L32.0053 79.9191L31.929 79.4261L32.1118 79.1197L32.2231 79.8413L33.3659 79.4331L33.1822 78.2335L32.4943 78.4785L32.6771 78.1721L33.1472 78.005L33.0709 77.5119L33.2537 77.2055L33.3649 77.9272L34.5078 77.519L34.324 76.3194L33.6362 76.5643L33.8189 76.2579L34.2891 76.0908L34.2127 75.5978L34.3955 75.2914L34.5068 76.013L35.6497 75.6048L35.4659 74.4052L34.778 74.6502L34.9608 74.3438L35.4309 74.1767L35.3546 73.6836L35.5374 73.3772L35.6487 74.0989L36.7915 73.6907L36.6078 72.4911L35.9199 72.736L36.1027 72.4296L36.5728 72.2625L36.4965 71.7695L36.6792 71.4631L36.7905 72.1847L37.9334 71.7765L37.7496 70.5769L37.0617 70.8219L37.2445 70.5155L37.7147 70.3484L37.6383 69.8553L37.8211 69.5489L37.9324 70.2705L39.0753 69.8624L38.9373 68.9664L39.19 69.1171L39.2914 69.7836L39.926 69.5562L40.1787 69.7069L39.3248 70.0112L39.5086 71.2108L40.6514 70.8026L40.5135 69.9066L40.7662 70.0574L40.8676 70.7238L41.5022 70.4964L41.7549 70.6471L40.901 70.9515L41.0847 72.151L42.2276 71.7429L42.0897 70.8469L42.3424 70.9976L42.4438 71.6641L43.0784 71.4367L43.3311 71.5874L42.4771 71.8917L42.6609 73.0913L43.8038 72.6831L43.6659 71.7871L43.9186 71.9379L44.0199 72.6043L44.6545 72.3769L44.8046 72.4664L44.7301 72.5912L44.0533 72.832L44.163 73.5419L43.9802 73.8483L43.8356 72.9098L42.6927 73.318L42.8765 74.5175L43.7711 74.1989L43.5883 74.5053L42.9114 74.7461L43.0211 75.4561L42.8383 75.7625L42.6937 74.8239L41.5508 75.2321L41.7346 76.4317L42.6292 76.1131L42.4464 76.4195L41.7696 76.6603L41.8793 77.3702L41.6965 77.6766L41.5518 76.7381L40.409 77.1463L40.5928 78.3458L41.4873 78.0272L41.3046 78.3336L40.6277 78.5744L40.7374 79.2844L40.5546 79.5908L40.41 78.6522L39.2671 79.0604L39.4509 80.26L40.3455 79.9414L40.1627 80.2478L39.4859 80.4886L39.5955 81.1985L39.4128 81.5049L39.2681 80.5664L38.1253 80.9746L38.309 82.1742L39.2036 81.8555L39.0208 82.1619L38.344 82.4027L38.4537 83.1127L38.2709 83.4191L38.1263 82.4805L36.9834 82.8887L37.1672 84.0883L38.0617 83.7697L37.879 84.0761L37.2021 84.3169L37.3118 85.0268L37.129 85.3332L36.9844 84.3947L35.8415 84.8029L36.0253 86.0025L36.9199 85.6838L36.7371 85.9902L36.0603 86.231L36.1699 86.941L35.9872 87.2474L35.8425 86.3088L34.6997 86.717L34.8834 87.9166L35.778 87.598L35.5952 87.9044L34.9184 88.1452L35.0281 88.8551L34.8453 89.1615L34.7007 88.223L33.5578 88.6312L33.7416 89.8308L34.6362 89.5121L34.4534 89.8185L33.7766 90.0593L33.8862 90.7693L33.7034 91.0757L33.5588 90.1371L32.416 90.5453L32.5997 91.7449L33.4943 91.4263L33.3115 91.7327L32.6347 91.9735L32.7444 92.6834L32.5616 92.9898L32.417 92.0513L31.2741 92.4595L31.4579 93.6591L32.3524 93.3405L32.1697 93.6468L31.4928 93.8876L31.6025 94.5976L31.4197 94.904L31.2751 93.9655L30.1322 94.3736L30.316 95.5732L31.2106 95.2546L31.0278 95.561L30.351 95.8018L30.4606 96.5118L30.2779 96.8181L30.1332 95.8796L28.9904 96.2878L29.1741 97.4874L30.0687 97.1688L29.8859 97.4751L29.2091 97.7159L29.3188 98.4259L29.136 98.7323L28.9914 97.7938L27.8485 98.2019L28.0323 99.4015L28.9268 99.0829L28.7441 99.3893L28.0672 99.6301L28.1769 100.34L27.9941 100.646L27.8495 99.7079L26.7066 100.116L26.8904 101.316L27.785 100.997L27.6022 101.303L26.9254 101.544L27.035 102.254L26.8523 102.561L26.7076 101.622L25.5648 102.03L25.7486 103.23L26.6431 102.911L26.4603 103.218L25.7835 103.458L25.8932 104.168L25.7104 104.475L25.5658 103.536L24.4229 103.944L24.6067 105.144L25.5013 104.825L25.3185 105.132L24.6417 105.373L24.7513 106.083L24.5686 106.389L24.4239 105.45L23.2811 105.859L23.4648 107.058L24.3594 106.74L24.1766 107.046L23.4998 107.287L23.6095 107.997L23.4267 108.303L23.2821 107.365L22.1392 107.773L22.323 108.972L23.2175 108.654L23.0348 108.96L22.3579 109.201L22.4676 109.911L22.2848 110.217L22.1402 109.279L21.0736 109.66L20.7324 109.456L20.5609 108.337L19.4943 108.717L19.1531 108.514L18.9815 107.394L17.9149 107.775L17.5738 107.572L17.4022 106.452L16.3356 106.833L15.9944 106.63L15.9303 106.217L16.1131 105.91L16.1257 105.918ZM18.5566 103.038L18.7404 104.238L19.8833 103.83L19.6995 102.63L18.5566 103.038ZM24.8932 99.0279L24.7095 97.8283L23.5666 98.2365L23.7504 99.4361L24.8932 99.0279ZM22.4222 100.151L22.606 101.351L23.7488 100.943L23.5651 99.7431L22.4222 100.151ZM26.0351 97.1138L25.8513 95.9142L24.7085 96.3224L24.8922 97.5219L26.0351 97.1138ZM27.1779 95.198L26.9941 93.9985L25.8513 94.4066L26.035 95.6062L27.1779 95.198ZM28.3207 93.2823L28.1369 92.0827L26.9941 92.4909L27.1778 93.6905L28.3207 93.2823ZM29.4635 91.3666L29.2797 90.167L28.1369 90.5752L28.3206 91.7747L29.4635 91.3666ZM30.6063 89.4508L30.4225 88.2513L29.2797 88.6594L29.4634 89.859L30.6063 89.4508ZM31.7491 87.5351L31.5653 86.3355L30.4225 86.7437L30.6063 87.9433L31.7491 87.5351ZM32.8919 85.6194L32.7081 84.4198L31.5653 84.828L31.7491 86.0276L32.8919 85.6194ZM34.0347 83.7036L33.8509 82.5041L32.7081 82.9122L32.8919 84.1118L34.0347 83.7036ZM35.1775 81.7879L34.9938 80.5883L33.8509 80.9965L34.0347 82.1961L35.1775 81.7879ZM36.3203 79.8722L36.1366 78.6726L34.9937 79.0808L35.1775 80.2804L36.3203 79.8722ZM37.4631 77.9564L37.2794 76.7569L36.1365 77.1651L36.3203 78.3646L37.4631 77.9564ZM38.6059 76.0407L38.4222 74.8411L37.2793 75.2493L37.4631 76.4489L38.6059 76.0407ZM37.498 76.6775L37.6818 77.877L38.8247 77.4689L38.6409 76.2693L37.498 76.6775ZM36.3552 78.5932L36.539 79.7928L37.6819 79.3846L37.4981 78.185L36.3552 78.5932ZM35.2124 80.5089L35.3962 81.7085L36.5391 81.3003L36.3553 80.1007L35.2124 80.5089ZM34.0696 82.4247L34.2534 83.6242L35.3963 83.216L35.2125 82.0165L34.0696 82.4247ZM32.9268 84.3404L33.1106 85.54L34.2535 85.1318L34.0697 83.9322L32.9268 84.3404ZM31.784 86.2561L31.9678 87.4557L33.1107 87.0475L32.9269 85.8479L31.784 86.2561ZM30.6412 88.1719L30.825 89.3714L31.9679 88.9632L31.7841 87.7637L30.6412 88.1719ZM29.4984 90.0876L29.6822 91.2872L30.825 90.879L30.6413 89.6794L29.4984 90.0876ZM28.3556 92.0033L28.5394 93.2029L29.6822 92.7947L29.4985 91.5951L28.3556 92.0033ZM27.2128 93.919L27.3966 95.1186L28.5394 94.7104L28.3557 93.5109L27.2128 93.919ZM26.07 95.8348L26.2538 97.0344L27.3966 96.6262L27.2129 95.4266L26.07 95.8348ZM24.9272 97.7505L25.111 98.9501L26.2538 98.5419L26.0701 97.3423L24.9272 97.7505ZM23.7844 99.6662L23.9682 100.866L25.111 100.458L24.9273 99.2581L23.7844 99.6662ZM22.6416 101.582L22.8254 102.782L23.9682 102.373L23.7844 101.174L22.6416 101.582ZM21.4988 103.498L21.6826 104.697L22.8254 104.289L22.6416 103.09L21.4988 103.498ZM22.6067 102.861L22.4229 101.661L21.28 102.07L21.4638 103.269L22.6067 102.861ZM21.0607 102.146L19.9179 102.555L20.1016 103.754L21.2445 103.346L21.0607 102.146ZM22.3864 101.432L22.2026 100.232L21.0597 100.64L21.2435 101.84L22.3864 101.432ZM23.5292 99.5161L23.3454 98.3166L22.2025 98.7247L22.3863 99.9243L23.5292 99.5161ZM24.672 97.6004L24.4882 96.4008L23.3453 96.809L23.5291 98.0086L24.672 97.6004ZM25.8148 95.6847L25.631 94.4851L24.4881 94.8933L24.6719 96.0929L25.8148 95.6847ZM26.9576 93.7689L26.7738 92.5694L25.6309 92.9776L25.8147 94.1771L26.9576 93.7689ZM28.1004 91.8532L27.9166 90.6536L26.7737 91.0618L26.9575 92.2614L28.1004 91.8532ZM29.2432 89.9375L29.0594 88.7379L27.9166 89.1461L28.1003 90.3457L29.2432 89.9375ZM30.386 88.0217L30.2022 86.8222L29.0594 87.2304L29.2431 88.4299L30.386 88.0217ZM31.5288 86.106L31.345 84.9064L30.2022 85.3146L30.3859 86.5142L31.5288 86.106ZM32.6716 84.1903L32.4878 82.9907L31.345 83.3989L31.5287 84.5985L32.6716 84.1903ZM33.8144 82.2746L33.6306 81.075L32.4878 81.4832L32.6715 82.6827L33.8144 82.2746ZM34.9572 80.3588L34.7734 79.1592L33.6306 79.5674L33.8144 80.767L34.9572 80.3588ZM36.1 78.4431L35.9162 77.2435L34.7734 77.6517L34.9572 78.8513L36.1 78.4431ZM37.2428 76.5274L37.059 75.3278L35.9162 75.736L36.1 76.9355L37.2428 76.5274ZM38.3856 74.6116L38.2019 73.4121L37.059 73.8202L37.2428 75.0198L38.3856 74.6116ZM38.6034 74.5338L39.7462 74.1256L39.5625 72.926L38.4196 73.3342L38.6034 74.5338ZM38.6383 74.7624L38.8221 75.9619L39.965 75.5538L39.7812 74.3542L38.6383 74.7624ZM40.1843 75.4769L41.3271 75.0687L41.1434 73.8691L40.0005 74.2773L40.1843 75.4769ZM38.8586 76.1915L39.0424 77.391L40.1853 76.9828L40.0015 75.7833L38.8586 76.1915ZM37.7158 78.1072L37.8996 79.3068L39.0425 78.8986L38.8587 77.699L37.7158 78.1072ZM36.573 80.0229L36.7568 81.2225L37.8997 80.8143L37.7159 79.6147L36.573 80.0229V80.0229ZM35.4302 81.9386L35.614 83.1382L36.7569 82.73L36.5731 81.5305L35.4302 81.9386ZM34.2874 83.8544L34.4712 85.054L35.6141 84.6458L35.4303 83.4462L34.2874 83.8544ZM33.1446 85.7701L33.3284 86.9697L34.4713 86.5615L34.2875 85.3619L33.1446 85.7701ZM32.0018 87.6858L32.1856 88.8854L33.3285 88.4772L33.1447 87.2777L32.0018 87.6858ZM30.859 89.6016L31.0428 90.8011L32.1856 90.393L32.0019 89.1934L30.859 89.6016ZM29.7162 91.5173L29.9 92.7169L31.0428 92.3087L30.8591 91.1091L29.7162 91.5173ZM28.5734 93.433L28.7572 94.6326L29.9 94.2244L29.7163 93.0248L28.5734 93.433ZM27.4306 95.3488L27.6144 96.5483L28.7572 96.1402L28.5735 94.9406L27.4306 95.3488ZM26.2878 97.2645L26.4716 98.4641L27.6144 98.0559L27.4307 96.8563L26.2878 97.2645ZM25.145 99.1802L25.3288 100.38L26.4716 99.9716L26.2878 98.772L25.145 99.1802ZM24.0022 101.096L24.186 102.296L25.3288 101.887L25.145 100.688L24.0022 101.096ZM22.8594 103.012L23.0432 104.211L24.186 103.803L24.0022 102.604L22.8594 103.012ZM21.7166 104.927L21.9003 106.127L23.0432 105.719L22.8594 104.519L21.7166 104.927ZM21.4988 105.005L20.356 105.413L20.5397 106.613L21.6826 106.205L21.4988 105.005ZM21.4639 104.777L21.2801 103.577L20.1372 103.985L20.321 105.185L21.4639 104.777ZM19.9179 104.062L18.7751 104.47L18.9588 105.67L20.1017 105.262L19.9179 104.062ZM19.6975 101.126L19.8813 102.325L21.0242 101.917L20.8404 100.717L19.6975 101.126ZM20.8404 99.2098L21.0241 100.409L22.167 100.001L21.9832 98.8016L20.8404 99.2098ZM21.9832 97.2941L22.1669 98.4937L23.3098 98.0855L23.126 96.8859L21.9832 97.2941ZM23.126 95.3784L23.3097 96.5779L24.4526 96.1697L24.2688 94.9702L23.126 95.3784ZM24.2688 93.4626L24.4525 94.6622L25.5954 94.254L25.4116 93.0544L24.2688 93.4626ZM25.4116 91.5469L25.5953 92.7465L26.7382 92.3383L26.5544 91.1387L25.4116 91.5469ZM26.5544 89.6312L26.7382 90.8307L27.881 90.4226L27.6972 89.223L26.5544 89.6312ZM27.6972 87.7154L27.881 88.915L29.0238 88.5068L28.84 87.3072L27.6972 87.7154ZM28.84 85.7997L29.0238 86.9993L30.1666 86.5911L29.9828 85.3915L28.84 85.7997ZM29.9828 83.884L30.1666 85.0835L31.3094 84.6754L31.1257 83.4758L29.9828 83.884ZM31.1256 81.9682L31.3094 83.1678L32.4522 82.7596L32.2685 81.56L31.1256 81.9682ZM32.2684 80.0525L32.4522 81.2521L33.595 80.8439L33.4113 79.6443L32.2684 80.0525ZM33.4112 78.1368L33.595 79.3363L34.7378 78.9282L34.5541 77.7286L33.4112 78.1368V78.1368ZM34.554 76.221L34.7378 77.4206L35.8806 77.0124L35.6969 75.8129L34.554 76.221ZM35.6968 74.3053L35.8806 75.5049L37.0235 75.0967L36.8397 73.8971L35.6968 74.3053ZM36.8396 72.3896L37.0234 73.5891L38.1663 73.181L37.9825 71.9814L36.8396 72.3896ZM39.1253 70.0657L37.9824 70.4738L38.1662 71.6734L39.3091 71.2652L39.1253 70.0657ZM38.2002 71.9036L38.384 73.1031L39.5269 72.695L39.3431 71.4954L38.2002 71.9036ZM40.7062 71.0087L39.5633 71.4169L39.7471 72.6165L40.89 72.2083L40.7062 71.0087ZM39.7811 72.8466L39.9649 74.0462L41.1078 73.638L40.924 72.4385L39.7811 72.8466ZM42.2871 71.9518L41.1442 72.36L41.328 73.5596L42.4709 73.1514L42.2871 71.9518ZM42.6903 74.582L42.5065 73.3825L41.3636 73.7907L41.5474 74.9902L42.6903 74.582ZM41.5475 76.4978L41.3637 75.2982L40.2208 75.7064L40.4046 76.906L41.5475 76.4978ZM40.4047 78.4135L40.2209 77.2139L39.078 77.6221L39.2618 78.8217L40.4047 78.4135ZM39.2618 80.3292L39.0781 79.1297L37.9352 79.5378L38.119 80.7374L39.2618 80.3292ZM38.119 82.245L37.9353 81.0454L36.7924 81.4536L36.9762 82.6532L38.119 82.245ZM36.9762 84.1607L36.7925 82.9611L35.6496 83.3693L35.8334 84.5689L36.9762 84.1607ZM35.8334 86.0764L35.6497 84.8769L34.5068 85.285L34.6906 86.4846L35.8334 86.0764ZM34.6906 87.9922L34.5069 86.7926L33.364 87.2008L33.5478 88.4003L34.6906 87.9922ZM33.5478 89.9079L33.364 88.7083L32.2212 89.1165L32.405 90.3161L33.5478 89.9079ZM32.405 91.8236L32.2212 90.624L31.0784 91.0322L31.2622 92.2318L32.405 91.8236ZM31.2622 93.7394L31.0784 92.5398L29.9356 92.948L30.1194 94.1475L31.2622 93.7394ZM30.1194 95.6551L29.9356 94.4555L28.7928 94.8637L28.9765 96.0633L30.1194 95.6551ZM28.9766 97.5708L28.7928 96.3712L27.65 96.7794L27.8337 97.979L28.9766 97.5708ZM27.8338 99.4866L27.65 98.287L26.5072 98.6952L26.6909 99.8947L27.8338 99.4866ZM26.691 101.402L26.5072 100.203L25.3644 100.611L25.5481 101.81L26.691 101.402ZM25.5482 103.318L25.3644 102.118L24.2216 102.527L24.4053 103.726L25.5482 103.318ZM24.4054 105.234L24.2216 104.034L23.0787 104.442L23.2625 105.642L24.4054 105.234ZM23.2626 107.149L23.0788 105.95L21.9359 106.358L22.1197 107.558L23.2626 107.149ZM20.9769 109.473L22.1198 109.065L21.936 107.866L20.7931 108.274L20.9769 109.473ZM21.902 107.635L21.7182 106.436L20.5753 106.844L20.7591 108.044L21.902 107.635ZM19.396 108.53L20.5389 108.122L20.3551 106.923L19.2122 107.331L19.396 108.53ZM20.3211 106.692L20.1373 105.493L18.9944 105.901L19.1782 107.101L20.3211 106.692ZM17.8151 107.587L18.958 107.179L18.7742 105.979L17.6313 106.388L17.8151 107.587ZM18.7402 105.749L18.5564 104.55L17.4135 104.958L17.5973 106.158L18.7402 105.749Z" fill="white"></path><path d="M38.214 68.8903L38.3807 68.6108L38.6113 68.7483L38.214 68.8903Z" fill="white"></path></g><g style="mix-blend-mode:multiply" opacity="0.21"><path d="M16.1524 106.613L16.0636 106.022L16.2454 105.717L16.3676 106.535L17.5039 106.127L17.323 104.934L16.545 105.215L16.7268 104.91L17.2886 104.708L17.1998 104.117L17.3816 103.813L17.5039 104.631L18.6401 104.223L18.4592 103.029L17.6812 103.31L17.863 103.005L18.4249 102.803L18.336 102.213L18.5178 101.908L18.6401 102.726L19.7763 102.318L19.5954 101.125L18.8174 101.406L18.9992 101.101L19.5611 100.898L19.4722 100.308L19.654 100.003L19.7763 100.821L20.9125 100.413L20.7316 99.2199L19.9536 99.501L20.1355 99.1961L20.6973 98.9938L20.6084 98.4033L20.7902 98.0985L20.9125 98.9166L22.0487 98.5088L21.8678 97.3152L21.0898 97.5963L21.2717 97.2915L21.8335 97.0891L21.7446 96.4986L21.9264 96.1938L22.0487 97.0119L23.1849 96.6041L23.004 95.4105L22.226 95.6916L22.4079 95.3868L22.9697 95.1845L22.8808 94.594L23.0627 94.2892L23.1849 95.1073L24.3211 94.6994L24.1402 93.5058L23.3623 93.7869L23.5441 93.4821L24.1059 93.2798L24.017 92.6893L24.1989 92.3845L24.3211 93.2026L25.4574 92.7947L25.2764 91.6011L24.4985 91.8822L24.6803 91.5774L25.2421 91.3751L25.1532 90.7846L25.3351 90.4798L25.4573 91.2979L26.5936 90.8901L26.4126 89.6965L25.6347 89.9776L25.8165 89.6728L26.3783 89.4704L26.2895 88.8799L26.4713 88.5751L26.5935 89.3932L27.7298 88.9854L27.5489 87.7918L26.7709 88.0729L26.9527 87.7681L27.5145 87.5658L27.4257 86.9753L27.6075 86.6704L27.7297 87.4886L28.866 87.0807L28.6851 85.8871L27.9071 86.1682L28.0889 85.8634L28.6507 85.6611L28.5619 85.0706L28.7437 84.7658L28.8659 85.5839L30.0022 85.176L29.8213 83.9824L29.0433 84.2635L29.2251 83.9587L29.7869 83.7564L29.6981 83.1659L29.8799 82.8611L30.0022 83.6792L31.1384 83.2714L30.9575 82.0778L30.1795 82.3589L30.3613 82.0541L30.9232 81.8517L30.8343 81.2612L31.0161 80.9564L31.1384 81.7745L32.2746 81.3667L32.0937 80.1731L31.3157 80.4542L31.4975 80.1494L32.0594 79.947L31.9705 79.3566L32.1523 79.0517L32.2746 79.8699L33.4108 79.462L33.2299 78.2684L32.4519 78.5495L32.6338 78.2447L33.1956 78.0424L33.1067 77.4519L33.2885 77.1471L33.4108 77.9652L34.547 77.5573L34.3661 76.3637L33.5881 76.6448L33.77 76.34L34.3318 76.1377L34.2429 75.5472L34.4247 75.2424L34.547 76.0605L35.6832 75.6526L35.5023 74.4591L34.7243 74.7402L34.9062 74.4354L35.468 74.233L35.3791 73.6425L35.561 73.3377L35.6832 74.1558L36.8194 73.748L36.6385 72.5544L35.8606 72.8355L36.0424 72.5307L36.6042 72.3283L36.5153 71.7379L36.6972 71.433L36.8194 72.2512L37.9557 71.8433L37.7747 70.6497L36.9968 70.9308L37.1786 70.626L37.7404 70.4237L37.6515 69.8332L37.8334 69.5284L37.9556 70.3465L39.0919 69.9386L38.9568 69.0486L39.2079 69.1984L39.3071 69.8614L39.9376 69.6337L40.1887 69.7835L39.3414 70.0875L39.5223 71.2811L40.6586 70.8732L40.5235 69.9832L40.7746 70.133L40.8738 70.796L41.5043 70.5683L41.7554 70.7181L40.9081 71.0221L41.089 72.2157L42.2253 71.8078L42.0902 70.9178L42.3413 71.0676L42.4405 71.7306L43.071 71.5029L43.3221 71.6527L42.4748 71.9567L42.6557 73.1503L43.792 72.7424L43.6569 71.8524L43.908 72.0022L44.0072 72.6652L44.6377 72.4375L44.7861 72.526L44.7127 72.6492L44.0399 72.8903L44.1474 73.5968L43.9655 73.9016L43.8247 72.9675L42.6885 73.3754L42.8694 74.5689L43.7583 74.2491L43.5764 74.5539L42.9037 74.795L43.0112 75.5015L42.8293 75.8063L42.6885 74.8722L41.5523 75.28L41.7332 76.4736L42.6221 76.1538L42.4402 76.4586L41.7675 76.6997L41.875 77.4062L41.6931 77.711L41.5523 76.7769L40.416 77.1847L40.597 78.3783L41.4859 78.0584L41.304 78.3633L40.6313 78.6043L40.7387 79.3109L40.5569 79.6157L40.4161 78.6815L39.2798 79.0894L39.4608 80.283L40.3496 79.9631L40.1678 80.2679L39.4951 80.509L39.6025 81.2155L39.4207 81.5203L39.2799 80.5862L38.1436 80.9941L38.3245 82.1877L39.2134 81.8678L39.0316 82.1726L38.3589 82.4137L38.4663 83.1202L38.2845 83.425L38.1437 82.4909L37.0074 82.8987L37.1883 84.0923L38.0772 83.7725L37.8954 84.0773L37.2227 84.3184L37.3301 85.0249L37.1483 85.3297L37.0074 84.3956L35.8712 84.8034L36.0521 85.997L36.941 85.6771L36.7592 85.982L36.0865 86.2231L36.1939 86.9296L36.0121 87.2344L35.8712 86.3002L34.735 86.7081L34.9159 87.9017L35.8048 87.5818L35.623 87.8866L34.9502 88.1277L35.0577 88.8342L34.8759 89.139L34.735 88.2049L33.5988 88.6128L33.7797 89.8064L34.6686 89.4865L34.4868 89.7913L33.814 90.0324L33.9215 90.7389L33.7397 91.0437L33.5988 90.1096L32.4626 90.5174L32.6435 91.711L33.5324 91.3912L33.3506 91.696L32.6778 91.9371L32.7853 92.6436L32.6034 92.9484L32.4626 92.0143L31.3264 92.4221L31.5073 93.6157L32.3962 93.2959L32.2144 93.6007L31.5416 93.8418L31.6491 94.5483L31.4672 94.8531L31.3264 93.9189L30.1902 94.3268L30.3711 95.5204L31.26 95.2005L31.0781 95.5053L30.4054 95.7464L30.5129 96.4529L30.331 96.7578L30.1902 95.8236L29.054 96.2315L29.2349 97.4251L30.1238 97.1052L29.9419 97.41L29.2692 97.6511L29.3767 98.3576L29.1948 98.6624L29.054 97.7283L27.9177 98.1361L28.0987 99.3297L28.9876 99.0099L28.8057 99.3147L28.133 99.5558L28.2404 100.262L28.0586 100.567L27.9178 99.633L26.7815 100.041L26.9625 101.234L27.8513 100.915L27.6695 101.219L26.9968 101.46L27.1042 102.167L26.9224 102.472L26.7816 101.538L25.6453 101.945L25.8262 103.139L26.7151 102.819L26.5333 103.124L25.8606 103.365L25.968 104.072L25.7862 104.376L25.6454 103.442L24.5091 103.85L24.69 105.044L25.5789 104.724L25.3971 105.029L24.7244 105.27L24.8318 105.976L24.65 106.281L24.5091 105.347L23.3729 105.755L23.5538 106.948L24.4427 106.629L24.2609 106.933L23.5882 107.174L23.6956 107.881L23.5138 108.186L23.3729 107.252L22.2367 107.66L22.4176 108.853L23.3065 108.533L23.1247 108.838L22.4519 109.079L22.5594 109.786L22.3776 110.09L22.2367 109.156L21.1005 109.564L21.1185 109.688L20.7315 109.458L20.8494 109.414L20.6685 108.221L19.5322 108.629L19.5502 108.753L19.1633 108.522L19.2811 108.479L19.1002 107.285L17.9639 107.693L17.9819 107.817L17.595 107.587L17.7128 107.543L17.5319 106.35L16.3957 106.758L16.4136 106.882L16.0267 106.651L16.1445 106.608L16.1524 106.613ZM18.6797 102.947L18.8607 104.14L19.9969 103.732L19.816 102.539L18.6797 102.947ZM24.9788 98.9419L24.7979 97.7483L23.6617 98.1562L23.8426 99.3497L24.9788 98.9419ZM22.5236 100.064L22.7045 101.258L23.8407 100.85L23.6598 99.6561L22.5236 100.064V100.064ZM26.1169 97.0341L25.936 95.8405L24.7998 96.2483L24.9807 97.4419L26.1169 97.0341ZM27.255 95.1262L27.0741 93.9326L25.9378 94.3405L26.1188 95.5341L27.255 95.1262ZM28.3931 93.2184L28.2122 92.0248L27.0759 92.4326L27.2569 93.6262L28.3931 93.2184ZM29.5312 91.3105L29.3503 90.117L28.214 90.5248L28.395 91.7184L29.5312 91.3105ZM30.6693 89.4027L30.4884 88.2091L29.3521 88.617L29.533 89.8106L30.6693 89.4027ZM31.8074 87.4949L31.6265 86.3013L30.4902 86.7091L30.6711 87.9027L31.8074 87.4949ZM32.9455 85.587L32.7646 84.3935L31.6283 84.8013L31.8092 85.9949L32.9455 85.587ZM34.0836 83.6792L33.9026 82.4856L32.7664 82.8935L32.9473 84.0871L34.0836 83.6792ZM35.2217 81.7714L35.0407 80.5778L33.9045 80.9856L34.0854 82.1792L35.2217 81.7714ZM36.3598 79.8635L36.1788 78.6699L35.0426 79.0778L35.2235 80.2714L36.3598 79.8635ZM37.4979 77.9557L37.3169 76.7621L36.1807 77.17L36.3616 78.3636L37.4979 77.9557ZM38.6359 76.0479L38.455 74.8543L37.3188 75.2621L37.4997 76.4557L38.6359 76.0479ZM37.5347 76.6843L37.7156 77.8779L38.8518 77.47L38.6709 76.2764L37.5347 76.6843ZM36.3966 78.5921L36.5775 79.7857L37.7137 79.3779L37.5328 78.1843L36.3966 78.5921ZM35.2585 80.5L35.4394 81.6935L36.5756 81.2857L36.3947 80.0921L35.2585 80.5ZM34.1204 82.4078L34.3013 83.6014L35.4375 83.1935L35.2566 81.9999L34.1204 82.4078ZM32.9823 84.3156L33.1632 85.5092L34.2995 85.1014L34.1185 83.9078L32.9823 84.3156ZM31.8442 86.2235L32.0251 87.4171L33.1614 87.0092L32.9804 85.8156L31.8442 86.2235ZM30.7061 88.1313L30.887 89.3249L32.0233 88.917L31.8423 87.7234L30.7061 88.1313ZM29.568 90.0391L29.7489 91.2327L30.8852 90.8249L30.7042 89.6313L29.568 90.0391ZM28.4299 91.947L28.6108 93.1406L29.7471 92.7327L29.5662 91.5391L28.4299 91.947ZM27.2918 93.8548L27.4727 95.0484L28.609 94.6405L28.4281 93.4469L27.2918 93.8548ZM26.1537 95.7626L26.3346 96.9562L27.4709 96.5484L27.29 95.3548L26.1537 95.7626ZM25.0156 97.6705L25.1966 98.8641L26.3328 98.4562L26.1519 97.2626L25.0156 97.6705ZM23.8775 99.5783L24.0585 100.772L25.1947 100.364L25.0138 99.1705L23.8775 99.5783V99.5783ZM22.7394 101.486L22.9204 102.68L24.0566 102.272L23.8757 101.078L22.7394 101.486ZM21.6014 103.394L21.7823 104.588L22.9185 104.18L22.7376 102.986L21.6014 103.394V103.394ZM22.7026 102.758L22.5217 101.564L21.3855 101.972L21.5664 103.165L22.7026 102.758ZM21.1693 102.051L20.0331 102.458L20.214 103.652L21.3502 103.244L21.1693 102.051ZM22.4883 101.336L22.3074 100.143L21.1712 100.551L21.3521 101.744L22.4883 101.336V101.336ZM23.6264 99.4285L23.4455 98.2349L22.3093 98.6428L22.4902 99.8364L23.6264 99.4285ZM24.7645 97.5207L24.5836 96.3271L23.4474 96.7349L23.6283 97.9285L24.7645 97.5207ZM25.9026 95.6128L25.7217 94.4192L24.5854 94.8271L24.7664 96.0207L25.9026 95.6128ZM27.0407 93.705L26.8598 92.5114L25.7235 92.9193L25.9045 94.1129L27.0407 93.705ZM28.1788 91.7972L27.9979 90.6036L26.8616 91.0114L27.0426 92.205L28.1788 91.7972ZM29.3169 89.8893L29.136 88.6957L27.9997 89.1036L28.1807 90.2972L29.3169 89.8893ZM30.455 87.9815L30.2741 86.7879L29.1378 87.1958L29.3187 88.3894L30.455 87.9815ZM31.5931 86.0737L31.4122 84.8801L30.2759 85.2879L30.4568 86.4815L31.5931 86.0737ZM32.7312 84.1658L32.5503 82.9722L31.414 83.3801L31.5949 84.5737L32.7312 84.1658ZM33.8693 82.258L33.6883 81.0644L32.5521 81.4723L32.733 82.6659L33.8693 82.258ZM35.0074 80.3502L34.8264 79.1566L33.6902 79.5644L33.8711 80.758L35.0074 80.3502ZM36.1455 78.4423L35.9645 77.2487L34.8283 77.6566L35.0092 78.8502L36.1455 78.4423ZM37.2835 76.5345L37.1026 75.3409L35.9664 75.7488L36.1473 76.9423L37.2835 76.5345ZM38.4216 74.6267L38.2407 73.4331L37.1045 73.8409L37.2854 75.0345L38.4216 74.6267ZM38.6378 74.5479L39.774 74.14L39.5931 72.9464L38.4569 73.3543L38.6378 74.5479ZM38.6712 74.7755L38.8521 75.9691L39.9883 75.5612L39.8074 74.3677L38.6712 74.7755ZM40.2045 75.4825L41.3407 75.0746L41.1598 73.881L40.0236 74.2889L40.2045 75.4825ZM38.8855 76.1967L39.0664 77.3903L40.2026 76.9825L40.0217 75.7889L38.8855 76.1967ZM37.7474 78.1046L37.9283 79.2982L39.0645 78.8903L38.8836 77.6967L37.7474 78.1046ZM36.6093 80.0124L36.7902 81.206L37.9265 80.7981L37.7455 79.6045L36.6093 80.0124V80.0124ZM35.4712 81.9202L35.6521 83.1138L36.7884 82.706L36.6074 81.5124L35.4712 81.9202ZM34.3331 83.8281L34.514 85.0217L35.6503 84.6138L35.4693 83.4202L34.3331 83.8281ZM33.195 85.7359L33.3759 86.9295L34.5122 86.5216L34.3313 85.328L33.195 85.7359ZM32.0569 87.6437L32.2378 88.8373L33.3741 88.4295L33.1932 87.2359L32.0569 87.6437ZM30.9188 89.5516L31.0997 90.7452L32.236 90.3373L32.0551 89.1437L30.9188 89.5516ZM29.7807 91.4594L29.9617 92.653L31.0979 92.2451L30.917 91.0516L29.7807 91.4594ZM28.6426 93.3672L28.8236 94.5608L29.9598 94.153L29.7789 92.9594L28.6426 93.3672ZM27.5045 95.2751L27.6855 96.4687L28.8217 96.0608L28.6408 94.8672L27.5045 95.2751ZM26.3664 97.1829L26.5474 98.3765L27.6836 97.9686L27.5027 96.7751L26.3664 97.1829ZM25.2284 99.0907L25.4093 100.284L26.5455 99.8765L26.3646 98.6829L25.2284 99.0907ZM24.0903 100.999L24.2712 102.192L25.4074 101.784L25.2265 100.591L24.0903 100.999V100.999ZM22.9522 102.906L23.1331 104.1L24.2693 103.692L24.0884 102.499L22.9522 102.906ZM21.8141 104.814L21.995 106.008L23.1312 105.6L22.9503 104.406L21.8141 104.814V104.814ZM21.5979 104.893L20.4617 105.301L20.6426 106.494L21.7788 106.087L21.5979 104.893V104.893ZM21.5645 104.665L21.3836 103.472L20.2474 103.88L20.4283 105.073L21.5645 104.665V104.665ZM20.0312 103.958L18.895 104.366L19.0759 105.56L20.2121 105.152L20.0312 103.958V103.958ZM19.8188 101.037L19.9997 102.231L21.1359 101.823L20.955 100.629L19.8188 101.037ZM20.9569 99.1294L21.1378 100.323L22.274 99.9151L22.0931 98.7215L20.9569 99.1294V99.1294ZM22.095 97.2216L22.2759 98.4151L23.4121 98.0073L23.2312 96.8137L22.095 97.2216ZM23.2331 95.3137L23.414 96.5073L24.5502 96.0995L24.3693 94.9059L23.2331 95.3137ZM24.3711 93.4059L24.5521 94.5995L25.6883 94.1916L25.5074 92.998L24.3711 93.4059ZM25.5092 91.4981L25.6902 92.6916L26.8264 92.2838L26.6455 91.0902L25.5092 91.4981ZM26.6473 89.5902L26.8283 90.7838L27.9645 90.376L27.7836 89.1824L26.6473 89.5902ZM27.7854 87.6824L27.9663 88.876L29.1026 88.4681L28.9217 87.2745L27.7854 87.6824ZM28.9235 85.7746L29.1044 86.9681L30.2407 86.5603L30.0598 85.3667L28.9235 85.7746ZM30.0616 83.8667L30.2425 85.0603L31.3788 84.6524L31.1979 83.4589L30.0616 83.8667ZM31.1997 81.9589L31.3806 83.1525L32.5169 82.7446L32.3359 81.551L31.1997 81.9589ZM32.3378 80.051L32.5187 81.2446L33.655 80.8368L33.474 79.6432L32.3378 80.051ZM33.4759 78.1432L33.6568 79.3368L34.7931 78.9289L34.6121 77.7354L33.4759 78.1432V78.1432ZM34.614 76.2354L34.7949 77.429L35.9312 77.0211L35.7502 75.8275L34.614 76.2354ZM35.7521 74.3275L35.933 75.5211L37.0692 75.1133L36.8883 73.9197L35.7521 74.3275ZM36.8902 72.4197L37.0711 73.6133L38.2073 73.2054L38.0264 72.0118L36.8902 72.4197ZM39.1655 70.1024L38.0292 70.5103L38.2101 71.7039L39.3464 71.296L39.1655 70.1024ZM38.2426 71.9331L38.4235 73.1267L39.5597 72.7188L39.3788 71.5252L38.2426 71.9331ZM40.7322 71.037L39.5959 71.4449L39.7768 72.6385L40.9131 72.2306L40.7322 71.037ZM39.8093 72.8677L39.9902 74.0613L41.1264 73.6534L40.9455 72.4598L39.8093 72.8677ZM42.2989 71.9716L41.1626 72.3795L41.3435 73.5731L42.4798 73.1652L42.2989 71.9716ZM42.6931 74.588L42.5122 73.3944L41.376 73.8023L41.5569 74.9959L42.6931 74.588ZM41.555 76.4958L41.3741 75.3023L40.2379 75.7101L40.4188 76.9037L41.555 76.4958ZM40.4169 78.4037L40.236 77.2101L39.0998 77.6179L39.2807 78.8115L40.4169 78.4037ZM39.2789 80.3115L39.0979 79.1179L37.9617 79.5258L38.1426 80.7194L39.2789 80.3115ZM38.1408 82.2193L37.9598 81.0258L36.8236 81.4336L37.0045 82.6272L38.1408 82.2193ZM37.0027 84.1272L36.8217 82.9336L35.6855 83.3414L35.8664 84.535L37.0027 84.1272ZM35.8646 86.035L35.6836 84.8414L34.5474 85.2493L34.7283 86.4429L35.8646 86.035ZM34.7265 87.9429L34.5456 86.7493L33.4093 87.1571L33.5902 88.3507L34.7265 87.9429ZM33.5884 89.8507L33.4075 88.6571L32.2712 89.0649L32.4521 90.2585L33.5884 89.8507ZM32.4503 91.7585L32.2694 90.5649L31.1331 90.9728L31.314 92.1664L32.4503 91.7585ZM31.3122 93.6664L31.1313 92.4728L29.995 92.8806L30.176 94.0742L31.3122 93.6664ZM30.1741 95.5742L29.9932 94.3806L28.8569 94.7885L29.0379 95.982L30.1741 95.5742ZM29.036 97.482L28.8551 96.2884L27.7188 96.6963L27.8998 97.8899L29.036 97.482ZM27.8979 99.3899L27.717 98.1963L26.5808 98.6041L26.7617 99.7977L27.8979 99.3899ZM26.7598 101.298L26.5789 100.104L25.4427 100.512L25.6236 101.706L26.7598 101.298V101.298ZM25.6217 103.206L25.4408 102.012L24.3046 102.42L24.4855 103.613L25.6217 103.206ZM24.4836 105.113L24.3027 103.92L23.1665 104.328L23.3474 105.521L24.4836 105.113V105.113ZM23.3455 107.021L23.1646 105.828L22.0284 106.235L22.2093 107.429L23.3455 107.021ZM21.0703 109.338L22.2065 108.931L22.0256 107.737L20.8893 108.145L21.0703 109.338ZM21.9931 107.508L21.8122 106.314L20.676 106.722L20.8569 107.916L21.9931 107.508ZM19.5036 108.404L20.6398 107.996L20.4589 106.802L19.3226 107.21L19.5036 108.404ZM20.4264 106.573L20.2455 105.38L19.1093 105.787L19.2902 106.981L20.4264 106.573ZM17.9369 107.469L19.0731 107.061L18.8922 105.868L17.7559 106.276L17.9369 107.469ZM18.8597 105.639L18.6788 104.445L17.5426 104.853L17.7235 106.046L18.8597 105.639Z" fill="#1D1D1B"></path><path d="M38.3563 68.6519L38.4123 68.6296L38.6635 68.7794L38.1744 68.9567L38.3563 68.6519Z" fill="#1D1D1B"></path></g><path d="M54.8302 47.5474L55.1903 47.7622L55.5504 47.977L53.0696 58.6472L49.8446 56.7233L46.6196 54.7995L54.8302 47.5474Z" fill="url(#paint14_linear_50_85)"></path><path d="M82.1647 19.8824C84.6019 23.2638 82.0524 29.2666 76.4702 33.29C70.888 37.3134 64.387 37.8338 61.9498 34.4524C59.5126 31.0709 62.0621 25.0681 67.6443 21.0447C73.2265 17.0213 79.7275 16.5009 82.1647 19.8824Z" fill="url(#paint15_linear_50_85)"></path><path d="M82.1662 19.8902C84.6033 23.2712 82.0523 29.2742 76.4701 33.2976C70.888 37.321 64.387 37.8413 61.9499 34.4602C61.6622 34.0595 61.4431 33.6226 61.2915 33.1553C62.1228 34.9745 68.3035 38.1069 76.3398 31.6459C84.8724 24.7872 82.1652 19.8918 82.1652 19.8918L82.1662 19.8902Z" fill="url(#paint16_linear_50_85)"></path><path d="M67.6279 19.0228C77.2776 12.2908 82.1662 19.8902 82.1662 19.8902C79.7291 16.5092 73.2281 17.0294 67.646 21.0529C62.0638 25.0763 59.5138 31.0777 61.9499 34.4603C61.9499 34.4603 55.5747 27.4324 67.6279 19.0228Z" fill="url(#paint17_linear_50_85)"></path><path d="M63.3481 35.8854C64.5657 36.6118 66.1706 36.9224 68.0398 36.7719C70.8033 36.5511 73.821 35.3512 76.5381 33.3917C79.2543 31.4338 81.3481 28.9505 82.4319 26.3978C83.5244 23.8268 83.4639 21.4909 82.2587 19.8212C81.0559 18.1508 78.8588 17.3541 76.0745 17.5775C73.311 17.7984 70.2933 18.9983 67.5762 20.9578C64.8601 22.9157 62.7663 25.399 61.6825 27.9517C60.5899 30.5226 60.6504 32.8586 61.8557 34.5283C62.2504 35.0764 62.7527 35.5302 63.3481 35.8854ZM80.6498 18.6666C81.2183 19.0057 81.6966 19.4388 82.071 19.9598C83.2253 21.5606 83.2762 23.8158 82.2175 26.3085C81.1506 28.822 79.0842 31.2702 76.402 33.2035C73.7198 35.1367 70.7428 36.3222 68.0216 36.5405C65.3211 36.7562 63.1982 35.993 62.0455 34.3931C60.8912 32.7923 60.8404 30.5371 61.8991 28.0445C62.9659 25.531 65.0324 23.0827 67.7145 21.1495C70.3967 19.2163 73.3738 18.0307 76.095 17.8125C77.916 17.6675 79.4738 17.9672 80.6488 18.6682L80.6498 18.6666Z" fill="url(#paint18_linear_50_85)"></path><path style="mix-blend-mode:screen" d="M73.2804 33.1957C73.2804 33.1957 78.7571 29.8802 81.1991 25.2876C83.6427 20.696 80.5088 18.501 77.349 18.3057C74.1893 18.1103 68.3006 20.7667 66.1175 23.6293L73.2797 33.1931L73.2804 33.1957Z" fill="url(#paint19_linear_50_85)"></path></g><defs><linearGradient id="paint0_linear_50_85" x1="15.2884" y1="32.4838" x2="15.1542" y2="31.306" gradientUnits="userSpaceOnUse"><stop stop-color="#5B5B5B"></stop><stop offset="0.04" stop-color="#727272"></stop><stop offset="0.08" stop-color="#8C8C8C"></stop><stop offset="0.13" stop-color="#9F9F9F"></stop><stop offset="0.17" stop-color="#AAAAAA"></stop><stop offset="0.23" stop-color="#AEAEAE"></stop><stop offset="0.52" stop-color="#5B5B5B"></stop><stop offset="0.57" stop-color="#6F6F6F"></stop><stop offset="0.67" stop-color="#A2A2A2"></stop><stop offset="0.81" stop-color="#F6F6F6"></stop><stop offset="0.86" stop-color="#F3F3F3"></stop><stop offset="0.9" stop-color="#EAEAEA"></stop><stop offset="0.93" stop-color="#DADADA"></stop><stop offset="0.96" stop-color="#C4C4C4"></stop><stop offset="0.99" stop-color="#A8A8A8"></stop><stop offset="1" stop-color="#9A9A9A"></stop></linearGradient><linearGradient id="paint1_linear_50_85" x1="18.0558" y1="31.5443" x2="18.7878" y2="31.4608" gradientUnits="userSpaceOnUse"><stop stop-color="white"></stop><stop offset="0.27" stop-color="#D6D6D6"></stop><stop offset="0.86" stop-color="#727272"></stop><stop offset="0.99" stop-color="#5B5B5B"></stop></linearGradient><linearGradient id="paint2_linear_50_85" x1="20.6059" y1="32.4886" x2="20.3411" y2="30.1656" gradientUnits="userSpaceOnUse"><stop stop-color="#5B5B5B"></stop><stop offset="0.04" stop-color="#727272"></stop><stop offset="0.08" stop-color="#8C8C8C"></stop><stop offset="0.13" stop-color="#9F9F9F"></stop><stop offset="0.17" stop-color="#AAAAAA"></stop><stop offset="0.23" stop-color="#AEAEAE"></stop><stop offset="0.52" stop-color="#5B5B5B"></stop><stop offset="0.57" stop-color="#6F6F6F"></stop><stop offset="0.67" stop-color="#A2A2A2"></stop><stop offset="0.81" stop-color="#F6F6F6"></stop><stop offset="0.86" stop-color="#F3F3F3"></stop><stop offset="0.9" stop-color="#EAEAEA"></stop><stop offset="0.93" stop-color="#DADADA"></stop><stop offset="0.96" stop-color="#C4C4C4"></stop><stop offset="0.99" stop-color="#A8A8A8"></stop><stop offset="1" stop-color="#9A9A9A"></stop></linearGradient><linearGradient id="paint3_linear_50_85" x1="19.1444" y1="31.4217" x2="21.0651" y2="31.2028" gradientUnits="userSpaceOnUse"><stop stop-color="white"></stop><stop offset="0.27" stop-color="#D6D6D6"></stop><stop offset="0.86" stop-color="#727272"></stop><stop offset="0.99" stop-color="#5B5B5B"></stop></linearGradient><linearGradient id="paint4_linear_50_85" x1="23.052" y1="36.2781" x2="21.8552" y2="25.7794" gradientUnits="userSpaceOnUse"><stop stop-color="#5B5B5B"></stop><stop offset="0.04" stop-color="#727272"></stop><stop offset="0.08" stop-color="#8C8C8C"></stop><stop offset="0.13" stop-color="#9F9F9F"></stop><stop offset="0.17" stop-color="#AAAAAA"></stop><stop offset="0.23" stop-color="#AEAEAE"></stop><stop offset="0.52" stop-color="#5B5B5B"></stop><stop offset="0.57" stop-color="#6F6F6F"></stop><stop offset="0.67" stop-color="#A2A2A2"></stop><stop offset="0.81" stop-color="#F6F6F6"></stop><stop offset="0.86" stop-color="#F3F3F3"></stop><stop offset="0.9" stop-color="#EAEAEA"></stop><stop offset="0.93" stop-color="#DADADA"></stop><stop offset="0.96" stop-color="#C4C4C4"></stop><stop offset="0.99" stop-color="#A8A8A8"></stop><stop offset="1" stop-color="#9A9A9A"></stop></linearGradient><linearGradient id="paint5_linear_50_85" x1="21.9433" y1="30.8354" x2="24.2192" y2="30.576" gradientUnits="userSpaceOnUse"><stop stop-color="white"></stop><stop offset="0.27" stop-color="#D6D6D6"></stop><stop offset="0.86" stop-color="#727272"></stop><stop offset="0.99" stop-color="#5B5B5B"></stop></linearGradient><linearGradient id="paint6_linear_50_85" x1="47.0338" y1="36.2943" x2="45.2447" y2="20.5987" gradientUnits="userSpaceOnUse"><stop stop-color="#5B5B5B"></stop><stop offset="0.04" stop-color="#727272"></stop><stop offset="0.08" stop-color="#8C8C8C"></stop><stop offset="0.13" stop-color="#9F9F9F"></stop><stop offset="0.17" stop-color="#AAAAAA"></stop><stop offset="0.23" stop-color="#AEAEAE"></stop><stop offset="0.52" stop-color="#5B5B5B"></stop><stop offset="0.57" stop-color="#6F6F6F"></stop><stop offset="0.67" stop-color="#A2A2A2"></stop><stop offset="0.81" stop-color="#F6F6F6"></stop><stop offset="0.86" stop-color="#F3F3F3"></stop><stop offset="0.9" stop-color="#EAEAEA"></stop><stop offset="0.93" stop-color="#DADADA"></stop><stop offset="0.96" stop-color="#C4C4C4"></stop><stop offset="0.99" stop-color="#A8A8A8"></stop><stop offset="1" stop-color="#9A9A9A"></stop></linearGradient><linearGradient id="paint7_linear_50_85" x1="48.4598" y1="27.8057" x2="45.1945" y2="28.1779" gradientUnits="userSpaceOnUse"><stop stop-color="white"></stop><stop offset="0.27" stop-color="#D6D6D6"></stop><stop offset="0.86" stop-color="#727272"></stop><stop offset="0.99" stop-color="#5B5B5B"></stop></linearGradient><linearGradient id="paint8_linear_50_85" x1="35.7998" y1="39.546" x2="33.5889" y2="20.1503" gradientUnits="userSpaceOnUse"><stop stop-color="#5B5B5B"></stop><stop offset="0.04" stop-color="#727272"></stop><stop offset="0.08" stop-color="#8C8C8C"></stop><stop offset="0.13" stop-color="#9F9F9F"></stop><stop offset="0.17" stop-color="#AAAAAA"></stop><stop offset="0.23" stop-color="#AEAEAE"></stop><stop offset="0.52" stop-color="#5B5B5B"></stop><stop offset="0.57" stop-color="#6F6F6F"></stop><stop offset="0.67" stop-color="#A2A2A2"></stop><stop offset="0.81" stop-color="#F6F6F6"></stop><stop offset="0.86" stop-color="#F3F3F3"></stop><stop offset="0.9" stop-color="#EAEAEA"></stop><stop offset="0.93" stop-color="#DADADA"></stop><stop offset="0.96" stop-color="#C4C4C4"></stop><stop offset="0.99" stop-color="#A8A8A8"></stop><stop offset="1" stop-color="#9A9A9A"></stop></linearGradient><radialGradient id="paint9_radial_50_85" cx="0" cy="0" r="1" gradientUnits="userSpaceOnUse" gradientTransform="translate(8.46838 32.0741) rotate(83.4969) scale(6.68582 6.68584)"><stop stop-color="#F6F6F6"></stop><stop offset="0.15" stop-color="#A2A2A2"></stop><stop offset="0.26" stop-color="#6F6F6F"></stop><stop offset="0.32" stop-color="#5B5B5B"></stop><stop offset="0.68" stop-color="#AEAEAE"></stop><stop offset="0.76" stop-color="#AAAAAA"></stop><stop offset="0.82" stop-color="#9F9F9F"></stop><stop offset="0.89" stop-color="#8C8C8C"></stop><stop offset="0.95" stop-color="#727272"></stop><stop offset="0.99" stop-color="#5B5B5B"></stop></radialGradient><linearGradient id="paint10_linear_50_85" x1="64.962" y1="84.3956" x2="57.1411" y2="89.2662" gradientUnits="userSpaceOnUse"><stop stop-color="#5B5B5B"></stop><stop offset="0.04" stop-color="#727272"></stop><stop offset="0.08" stop-color="#8C8C8C"></stop><stop offset="0.13" stop-color="#9F9F9F"></stop><stop offset="0.17" stop-color="#AAAAAA"></stop><stop offset="0.23" stop-color="#AEAEAE"></stop><stop offset="0.52" stop-color="#5B5B5B"></stop><stop offset="0.57" stop-color="#6F6F6F"></stop><stop offset="0.67" stop-color="#A2A2A2"></stop><stop offset="0.81" stop-color="#F6F6F6"></stop><stop offset="0.86" stop-color="#F3F3F3"></stop><stop offset="0.9" stop-color="#EAEAEA"></stop><stop offset="0.93" stop-color="#DADADA"></stop><stop offset="0.96" stop-color="#C4C4C4"></stop><stop offset="0.99" stop-color="#A8A8A8"></stop><stop offset="1" stop-color="#9A9A9A"></stop></linearGradient><linearGradient id="paint11_linear_50_85" x1="44.6197" y1="47.7434" x2="36.6728" y2="48.4513" gradientUnits="userSpaceOnUse"><stop stop-color="#5B5B5B"></stop><stop offset="0.04" stop-color="#727272"></stop><stop offset="0.08" stop-color="#8C8C8C"></stop><stop offset="0.13" stop-color="#9F9F9F"></stop><stop offset="0.17" stop-color="#AAAAAA"></stop><stop offset="0.23" stop-color="#AEAEAE"></stop><stop offset="0.52" stop-color="#5B5B5B"></stop><stop offset="0.57" stop-color="#6F6F6F"></stop><stop offset="0.67" stop-color="#A2A2A2"></stop><stop offset="0.81" stop-color="#F6F6F6"></stop><stop offset="0.86" stop-color="#F3F3F3"></stop><stop offset="0.9" stop-color="#EAEAEA"></stop><stop offset="0.93" stop-color="#DADADA"></stop><stop offset="0.96" stop-color="#C4C4C4"></stop><stop offset="0.99" stop-color="#A8A8A8"></stop><stop offset="1" stop-color="#9A9A9A"></stop></linearGradient><linearGradient id="paint12_linear_50_85" x1="58.2865" y1="41.8361" x2="58.9562" y2="42.2356" gradientUnits="userSpaceOnUse"><stop stop-color="#5B5B5B"></stop><stop offset="0.04" stop-color="#727272"></stop><stop offset="0.08" stop-color="#8C8C8C"></stop><stop offset="0.13" stop-color="#9F9F9F"></stop><stop offset="0.17" stop-color="#AAAAAA"></stop><stop offset="0.23" stop-color="#AEAEAE"></stop><stop offset="0.52" stop-color="#5B5B5B"></stop><stop offset="0.57" stop-color="#6F6F6F"></stop><stop offset="0.67" stop-color="#A2A2A2"></stop><stop offset="0.81" stop-color="#F6F6F6"></stop><stop offset="0.86" stop-color="#F3F3F3"></stop><stop offset="0.9" stop-color="#EAEAEA"></stop><stop offset="0.93" stop-color="#DADADA"></stop><stop offset="0.96" stop-color="#C4C4C4"></stop><stop offset="0.99" stop-color="#A8A8A8"></stop><stop offset="1" stop-color="#9A9A9A"></stop></linearGradient><linearGradient id="paint13_linear_50_85" x1="28.0069" y1="86.1229" x2="34.3526" y2="89.9083" gradientUnits="userSpaceOnUse"><stop stop-color="#5B5B5B"></stop><stop offset="0.04" stop-color="#727272"></stop><stop offset="0.08" stop-color="#8C8C8C"></stop><stop offset="0.13" stop-color="#9F9F9F"></stop><stop offset="0.17" stop-color="#AAAAAA"></stop><stop offset="0.23" stop-color="#AEAEAE"></stop><stop offset="0.52" stop-color="#5B5B5B"></stop><stop offset="0.57" stop-color="#6F6F6F"></stop><stop offset="0.67" stop-color="#A2A2A2"></stop><stop offset="0.81" stop-color="#F6F6F6"></stop><stop offset="0.86" stop-color="#F3F3F3"></stop><stop offset="0.9" stop-color="#EAEAEA"></stop><stop offset="0.93" stop-color="#DADADA"></stop><stop offset="0.96" stop-color="#C4C4C4"></stop><stop offset="0.99" stop-color="#A8A8A8"></stop><stop offset="1" stop-color="#9A9A9A"></stop></linearGradient><linearGradient id="paint14_linear_50_85" x1="55.0234" y1="53.4228" x2="48.2544" y2="51.3806" gradientUnits="userSpaceOnUse"><stop stop-color="#5B5B5B"></stop><stop offset="0.11" stop-color="#A4A4A4"></stop><stop offset="0.21" stop-color="#DFDFDF"></stop><stop offset="0.25" stop-color="#F6F6F6"></stop><stop offset="0.28" stop-color="#E9E9E9"></stop><stop offset="0.35" stop-color="#CFCFCF"></stop><stop offset="0.43" stop-color="#BCBCBC"></stop><stop offset="0.5" stop-color="#B1B1B1"></stop><stop offset="0.59" stop-color="#AEAEAE"></stop><stop offset="1" stop-color="#5B5B5B"></stop></linearGradient><linearGradient id="paint15_linear_50_85" x1="85.8058" y1="22.6697" x2="49.3921" y2="34.6053" gradientUnits="userSpaceOnUse"><stop stop-color="white"></stop><stop offset="0.03" stop-color="#F3FAFF" stop-opacity="0.98"></stop><stop offset="0.14" stop-color="#BAE5FF" stop-opacity="0.87"></stop><stop offset="0.26" stop-color="#88D2FF" stop-opacity="0.77"></stop><stop offset="0.38" stop-color="#5EC2FF" stop-opacity="0.69"></stop><stop offset="0.5" stop-color="#3CB5FF" stop-opacity="0.62"></stop><stop offset="0.62" stop-color="#21AAFF" stop-opacity="0.57"></stop><stop offset="0.74" stop-color="#0FA3FF" stop-opacity="0.53"></stop><stop offset="0.86" stop-color="#039FFF" stop-opacity="0.51"></stop><stop offset="1" stop-color="#009EFF" stop-opacity="0.5"></stop></linearGradient><linearGradient id="paint16_linear_50_85" x1="62.657" y1="35.5758" x2="85.1069" y2="23.6188" gradientUnits="userSpaceOnUse"><stop stop-color="#5B5B5B"></stop><stop offset="0.04" stop-color="#727272"></stop><stop offset="0.08" stop-color="#8C8C8C"></stop><stop offset="0.13" stop-color="#9F9F9F"></stop><stop offset="0.17" stop-color="#AAAAAA"></stop><stop offset="0.23" stop-color="#AEAEAE"></stop><stop offset="0.52" stop-color="#5B5B5B"></stop><stop offset="0.57" stop-color="#6F6F6F"></stop><stop offset="0.67" stop-color="#A2A2A2"></stop><stop offset="0.81" stop-color="#F6F6F6"></stop><stop offset="0.86" stop-color="#F3F3F3"></stop><stop offset="0.9" stop-color="#EAEAEA"></stop><stop offset="0.93" stop-color="#DADADA"></stop><stop offset="0.96" stop-color="#C4C4C4"></stop><stop offset="0.99" stop-color="#A8A8A8"></stop><stop offset="1" stop-color="#9A9A9A"></stop></linearGradient><linearGradient id="paint17_linear_50_85" x1="59.3456" y1="29.5576" x2="81.8402" y2="17.5758" gradientUnits="userSpaceOnUse"><stop stop-color="#5B5B5B"></stop><stop offset="0.04" stop-color="#727272"></stop><stop offset="0.08" stop-color="#8C8C8C"></stop><stop offset="0.13" stop-color="#9F9F9F"></stop><stop offset="0.17" stop-color="#AAAAAA"></stop><stop offset="0.23" stop-color="#AEAEAE"></stop><stop offset="0.52" stop-color="#5B5B5B"></stop><stop offset="0.57" stop-color="#6F6F6F"></stop><stop offset="0.67" stop-color="#A2A2A2"></stop><stop offset="0.81" stop-color="#F6F6F6"></stop><stop offset="0.86" stop-color="#F3F3F3"></stop><stop offset="0.9" stop-color="#EAEAEA"></stop><stop offset="0.93" stop-color="#DADADA"></stop><stop offset="0.96" stop-color="#C4C4C4"></stop><stop offset="0.99" stop-color="#A8A8A8"></stop><stop offset="1" stop-color="#9A9A9A"></stop></linearGradient><linearGradient id="paint18_linear_50_85" x1="72.5351" y1="39.5457" x2="71.7496" y2="19.1668" gradientUnits="userSpaceOnUse"><stop stop-color="#878787"></stop><stop offset="0.04" stop-color="#9E9E9E"></stop><stop offset="0.08" stop-color="#B8B8B8"></stop><stop offset="0.13" stop-color="#CBCBCB"></stop><stop offset="0.17" stop-color="#D6D6D6"></stop><stop offset="0.23" stop-color="#DADADA"></stop><stop offset="0.52" stop-color="#878787"></stop><stop offset="0.58" stop-color="#9B9B9B"></stop><stop offset="0.7" stop-color="#CECECE"></stop><stop offset="0.81" stop-color="white"></stop><stop offset="0.87" stop-color="#FCFCFC"></stop><stop offset="0.92" stop-color="#F3F3F3"></stop><stop offset="0.95" stop-color="#E3E3E3"></stop><stop offset="0.99" stop-color="#CDCDCD"></stop><stop offset="1" stop-color="#C6C6C6"></stop></linearGradient><linearGradient id="paint19_linear_50_85" x1="81.6403" y1="20.4416" x2="69.9377" y2="27.9297" gradientUnits="userSpaceOnUse"><stop stop-color="white"></stop><stop offset="0.03" stop-color="#F3F3F3"></stop><stop offset="0.14" stop-color="#BABABA"></stop><stop offset="0.26" stop-color="#888888"></stop><stop offset="0.38" stop-color="#5E5E5E"></stop><stop offset="0.5" stop-color="#3C3C3C"></stop><stop offset="0.62" stop-color="#212121"></stop><stop offset="0.74" stop-color="#0F0F0F"></stop><stop offset="0.86" stop-color="#030303"></stop><stop offset="1"></stop></linearGradient><clipPath id="clip0_50_85"><rect width="26.3519" height="127.647" fill="white" transform="matrix(0.858802 0.512307 0.512307 -0.858802 3.52917 114.586)"></rect></clipPath></defs></svg>