<svg xmlns="http://www.w3.org/2000/svg" width="115" height="115" viewBox="0 0 115 115" fill="none"><g clip-path="url(#clip0_11_17)"><circle cx="57.5" cy="57.5" r="55.5" fill="white" stroke="#A868A4" stroke-width="4"></circle><path d="M45.0768 56.4238C38.8554 47.237 34.5828 28.8512 34.0744 25.6073C33.3603 21.0079 33.8081 17.1588 37.6813 14.968C41.022 13.0677 46.8803 15.8637 46.8803 15.8637C55.7767 19.749 62.3733 16.3721 64.201 15.2222C64.7819 14.8712 65.3629 14.5444 65.9802 14.2781C72.8915 11.2521 73.9688 16.6989 74.2835 20.0274C74.4166 21.3952 76.0628 22.2667 77.4305 22.2667C77.4305 22.2667 78.3383 10.0054 68.5947 14.2781C67.9774 14.5444 67.3843 14.8712 66.8154 15.2222C64.9756 16.3721 58.3911 19.749 49.4947 15.8637C49.4947 15.8637 44.2659 13.455 40.9373 15.3432C37.064 17.5461 35.9747 21.0079 36.6888 25.6073C37.1972 28.8512 41.4699 47.237 47.6913 56.4238C47.6913 56.4238 49.0348 58.5057 51.1167 57.5132C51.1167 57.5132 47.776 60.2123 45.0768 56.4238ZM53.8763 58.191C66.1376 62.3305 72.1411 36.6461 73.5694 29.7711C73.763 28.7907 74.6224 28.0886 75.6149 28.0765L77.3458 28.137C77.3458 28.137 71.0154 65.6712 53.5859 58.3847L53.8763 58.191Z" fill="#162061"></path><path d="M51.9276 56.9806C51.855 55.6008 52.6296 54.0031 53.9127 53.5552C61.4171 51.0134 64.0073 47.4306 64.4551 45.0341C64.6004 44.3078 64.6367 43.5574 64.5036 42.8191C63.2811 35.9198 50.8988 34.3584 48.3449 34.1043C48.006 34.068 47.6792 34.0316 47.3524 33.9469C45.8031 33.5959 44.5927 33.0875 43.6607 32.4944C40.7194 30.6547 40.0053 26.6846 42.0387 24.0943C45.452 19.7733 53.1622 18.8292 53.1622 18.8292C61.8286 18.0061 68.9457 20.8263 72.2016 22.3877C73.7025 23.1139 74.3803 24.7116 74.4651 26.3457C74.4651 26.3457 66.2586 20.0274 53.2954 21.262C53.2954 21.262 45.5973 22.2061 42.184 26.5272C40.1384 29.1175 40.8526 33.0875 43.7938 34.9273C44.7258 35.5204 45.9362 36.0288 47.4976 36.3919C47.8244 36.4645 48.1512 36.5008 48.478 36.5371C51.0319 36.7913 63.4263 38.3527 64.6367 45.2519C64.7698 45.9903 64.7335 46.7407 64.6004 47.4669C64.1041 50.0814 61.9254 54.5477 52.6539 56.9806H51.9276ZM15.1318 84.2628C15.3335 84.5371 15.5797 84.7873 15.8701 85.0132C16.1526 85.2311 16.4874 85.4126 16.8748 85.5579C17.254 85.6951 17.6817 85.7637 18.1578 85.7637C18.6419 85.7637 19.0817 85.6789 19.4771 85.5095C19.8644 85.34 20.1953 85.11 20.4696 84.8196C20.744 84.5291 20.9538 84.1901 21.099 83.8028C21.2523 83.4074 21.329 82.9919 21.329 82.5561C21.329 81.8702 21.1555 81.3296 20.8085 80.9342C20.4616 80.5388 20.0298 80.208 19.5134 79.9417C18.997 79.6754 18.4362 79.4293 17.831 79.2033C17.2339 78.9855 16.6771 78.7111 16.1606 78.3803C15.6442 78.0414 15.2125 77.6137 14.8655 77.0973C14.5185 76.5808 14.3451 75.8869 14.3451 75.0154C14.3451 74.3941 14.458 73.8292 14.684 73.3209C14.9018 72.8125 15.2206 72.3727 15.6402 72.0015C16.0598 71.6384 16.5681 71.352 17.1653 71.1422C17.7543 70.9324 18.416 70.8274 19.1503 70.8274C19.8604 70.8274 20.4737 70.9122 20.9901 71.0816C21.5065 71.2592 21.9866 71.5214 22.4305 71.8684C22.3013 72.1266 22.1924 72.3929 22.1036 72.6672C22.0149 72.9497 21.9261 73.3047 21.8374 73.7324H21.5711C21.4985 73.5307 21.3976 73.3047 21.2685 73.0546C21.1474 72.8125 20.978 72.5906 20.7601 72.3889C20.5422 72.1791 20.2881 72.0056 19.9976 71.8684C19.699 71.7231 19.344 71.6505 18.9324 71.6505C18.5209 71.6505 18.1416 71.7191 17.7947 71.8563C17.4477 71.9854 17.1451 72.171 16.8869 72.4131C16.6287 72.6551 16.4269 72.9497 16.2817 73.2966C16.1445 73.6356 16.0759 74.0027 16.0759 74.3981C16.0759 75.0921 16.2494 75.6408 16.5964 76.0442C16.9434 76.4396 17.3751 76.7745 17.8915 77.0489C18.4079 77.3232 18.9647 77.5653 19.5618 77.7751C20.159 77.993 20.7157 78.2552 21.2322 78.5618C21.7486 78.8765 22.1803 79.276 22.5273 79.7601C22.8743 80.2443 23.0478 80.8939 23.0478 81.7089C23.0478 82.3867 22.9267 83.0282 22.6846 83.6334C22.4426 84.2386 22.0875 84.7671 21.6195 85.219C21.1595 85.6709 20.5907 86.0178 19.9128 86.2599C19.2431 86.502 18.4806 86.623 17.6252 86.623C16.7134 86.623 15.971 86.502 15.3981 86.2599C14.8332 86.0178 14.3572 85.7394 13.9698 85.4247C14.107 85.0858 14.1998 84.7792 14.2482 84.5048C14.2966 84.2386 14.3451 83.8916 14.3935 83.4639H14.6598C14.7727 83.7302 14.9301 83.9965 15.1318 84.2628V84.2628Z" fill="#3AB5E6"></path><path fill-rule="evenodd" clip-rule="evenodd" d="M30.879 70.8274C31.234 71.6909 31.6173 72.6188 32.0288 73.6113C32.4404 74.6119 32.86 75.6206 33.2876 76.6373C33.7153 77.654 34.143 78.6667 34.5707 79.6754C35.0064 80.676 35.4099 81.608 35.781 82.4714C36.1603 83.3348 36.4992 84.1054 36.7978 84.7832C37.1044 85.4691 37.3545 85.9855 37.5482 86.3325C37.3384 86.3083 37.1407 86.2962 36.9551 86.2962H35.781C35.5954 86.2962 35.4018 86.3083 35.2001 86.3325C35.0952 85.9936 34.9539 85.5861 34.7764 85.11C34.5989 84.6259 34.4012 84.1215 34.1833 83.597C33.9735 83.0806 33.7557 82.5521 33.5297 82.0114C33.3119 81.4708 33.1061 80.9584 32.9124 80.4742C32.4444 80.4581 31.9643 80.446 31.4721 80.4379C30.9879 80.4299 30.4997 80.4258 30.0075 80.4258C29.5556 80.4258 29.1078 80.4299 28.664 80.4379C28.2201 80.446 27.7683 80.4581 27.3083 80.4742C26.8403 81.6201 26.4126 82.7135 26.0253 83.7544C25.638 84.7953 25.3515 85.6547 25.1659 86.3325C24.9158 86.3083 24.6414 86.2962 24.3429 86.2962C24.0443 86.2962 23.77 86.3083 23.5198 86.3325C24.7221 83.7504 25.8881 81.1843 27.0178 78.6344C28.1556 76.0765 29.3014 73.4742 30.4553 70.8274H30.879ZM26.8968 69.5444C26.9371 69.2781 27.0138 69.0119 27.1268 68.7456C27.2397 68.4793 27.389 68.2372 27.5746 68.0193C27.7683 67.8015 27.9982 67.6199 28.2645 67.4747C28.5308 67.3375 28.8415 67.2689 29.1965 67.2689C29.4467 67.2689 29.6767 67.3052 29.8865 67.3778C30.0882 67.4505 30.3988 67.5836 30.8184 67.7773C31.23 67.9871 31.5285 68.1242 31.7141 68.1888C31.8997 68.2534 32.0853 68.2856 32.2709 68.2856C32.6098 68.2856 32.8842 68.1767 33.094 67.9588C33.3038 67.7329 33.4531 67.4747 33.5418 67.1842H34.1833C34.1511 67.3536 34.0905 67.5715 34.0018 67.8378C33.913 68.1041 33.7758 68.3663 33.5902 68.6245C33.4046 68.8828 33.1666 69.1006 32.8761 69.2781C32.5775 69.4557 32.2064 69.5444 31.7626 69.5444C31.5608 69.5444 31.3308 69.5081 31.0726 69.4355C30.8144 69.3629 30.5159 69.2297 30.1769 69.0361C29.7896 68.8343 29.4951 68.6972 29.2934 68.6245C29.0997 68.56 28.9141 68.5277 28.7366 68.5277C28.3896 68.5277 28.1395 68.6003 27.9861 68.7456C27.8328 68.8989 27.6916 69.1652 27.5625 69.5444H26.8968ZM27.732 79.4454C28.1193 79.4454 28.5187 79.4535 28.9302 79.4696C29.3418 79.4858 29.7412 79.4938 30.1285 79.4938C30.5401 79.4938 30.9516 79.4898 31.3631 79.4817C31.7747 79.4737 32.1902 79.4615 32.6098 79.4454L30.1527 73.8292L27.732 79.4454ZM37.9355 78.7555C37.9355 77.4967 38.1413 76.3791 38.5528 75.4027C38.9563 74.4183 39.5211 73.5871 40.2474 72.9093C40.9817 72.2234 41.8572 71.707 42.8739 71.36C43.8987 71.005 45.0163 70.8274 46.2267 70.8274C47.4532 70.8274 48.5749 71.005 49.5916 71.36C50.6083 71.707 51.4838 72.2234 52.2181 72.9093C52.9444 73.5871 53.5132 74.4183 53.9248 75.4027C54.3282 76.3791 54.53 77.4967 54.53 78.7555C54.53 80.0062 54.3282 81.1238 53.9248 82.1083C53.5132 83.0927 52.9444 83.9239 52.2181 84.6017C51.4838 85.2795 50.6083 85.7838 49.5916 86.1147C48.5749 86.4455 47.4532 86.6109 46.2267 86.6109C45.0163 86.6109 43.8987 86.4455 42.8739 86.1147C41.8572 85.7838 40.9817 85.2795 40.2474 84.6017C39.5211 83.9239 38.9563 83.0927 38.5528 82.1083C38.1413 81.1238 37.9355 80.0062 37.9355 78.7555ZM52.3634 78.7555C52.3634 77.529 52.206 76.4679 51.8913 75.5722C51.5847 74.6765 51.153 73.9381 50.5962 73.3572C50.0394 72.7762 49.3898 72.3445 48.6475 72.062C47.9051 71.7796 47.0982 71.6384 46.2267 71.6384C45.3633 71.6384 44.5604 71.7796 43.818 72.062C43.0757 72.3445 42.4261 72.7762 41.8693 73.3572C41.3125 73.9381 40.8808 74.6765 40.5742 75.5722C40.2676 76.4679 40.1142 77.529 40.1142 78.7555C40.1142 79.982 40.2676 81.0391 40.5742 81.9267C40.8808 82.8224 41.3125 83.5607 41.8693 84.1417C42.4261 84.7308 43.0757 85.1625 43.818 85.4368C44.5604 85.7193 45.3633 85.8605 46.2267 85.8605C47.0982 85.8605 47.9051 85.7193 48.6475 85.4368C49.3898 85.1625 50.0394 84.7308 50.5962 84.1417C51.153 83.5607 51.5847 82.8224 51.8913 81.9267C52.206 81.0391 52.3634 79.982 52.3634 78.7555ZM57.8343 88.3539C58.1974 88.0634 58.4758 87.6599 58.6695 87.1435C58.8632 86.6271 58.9842 86.0138 59.0326 85.3037C59.0891 84.5936 59.1173 83.8028 59.1173 82.9313V76.8431C59.1173 75.8667 59.0972 74.9105 59.0568 73.9745C59.0245 73.0384 58.9842 72.0822 58.9358 71.1058C59.1294 71.1381 59.315 71.1623 59.4926 71.1785C59.6701 71.2027 59.8476 71.2148 60.0251 71.2148C60.2026 71.2148 60.3802 71.2027 60.5577 71.1785C60.7352 71.1623 60.9208 71.1381 61.1145 71.1058C61.0661 72.0822 61.0217 73.0384 60.9813 73.9745C60.9491 74.9105 60.9329 75.8667 60.9329 76.8431C60.9329 77.5048 60.937 78.1906 60.945 78.9007C60.9531 79.6108 60.9612 80.3088 60.9692 80.9947C60.9773 81.6806 60.9813 82.3423 60.9813 82.9797C60.9894 83.6172 60.9934 84.1982 60.9934 84.7227C60.9934 85.3925 60.8885 86.0017 60.6787 86.5504C60.4609 87.1072 60.1542 87.5994 59.7588 88.0271C59.3554 88.4547 58.8793 88.7896 58.3306 89.0317C57.7738 89.2818 57.1726 89.4069 56.5271 89.4069L56.3455 88.7775C56.9669 88.7775 57.4631 88.6363 57.8343 88.3539V88.3539ZM63.1237 78.7434C63.1237 77.4927 63.3255 76.3751 63.7289 75.3906C64.1405 74.4062 64.7093 73.575 65.4356 72.8972C66.1699 72.2194 67.0454 71.703 68.0621 71.3479C69.0788 70.9929 70.1964 70.8153 71.4149 70.8153C72.6333 70.8153 73.755 70.9929 74.7798 71.3479C75.7965 71.703 76.672 72.2194 77.4063 72.8972C78.1325 73.575 78.6974 74.4062 79.1009 75.3906C79.5124 76.3751 79.7182 77.4927 79.7182 78.7434C79.7182 80.0022 79.5124 81.1238 79.1009 82.1083C78.6974 83.0846 78.1325 83.9158 77.4063 84.6017C76.672 85.2795 75.7965 85.7838 74.7798 86.1147C73.755 86.4455 72.6333 86.6109 71.4149 86.6109C70.1964 86.6109 69.0788 86.4455 68.0621 86.1147C67.0454 85.7838 66.1699 85.2795 65.4356 84.6017C64.7093 83.9158 64.1405 83.0846 63.7289 82.1083C63.3255 81.1238 63.1237 80.0022 63.1237 78.7434ZM77.5395 78.7434C77.5395 77.5249 77.3861 76.4679 77.0795 75.5722C76.7729 74.6765 76.3412 73.9381 75.7844 73.3572C75.2276 72.7762 74.578 72.3445 73.8357 72.062C73.0852 71.7796 72.2783 71.6384 71.4149 71.6384C70.5515 71.6384 69.7486 71.7796 69.0062 72.062C68.2638 72.3445 67.6143 72.7762 67.0575 73.3572C66.5007 73.9381 66.069 74.6765 65.7624 75.5722C65.4477 76.4679 65.2903 77.5249 65.2903 78.7434C65.2903 79.9699 65.4477 81.031 65.7624 81.9267C66.069 82.8224 66.5007 83.5607 67.0575 84.1417C67.6143 84.7227 68.2638 85.1544 69.0062 85.4368C69.7486 85.7193 70.5515 85.8605 71.4149 85.8605C72.2783 85.8605 73.0852 85.7193 73.8357 85.4368C74.578 85.1544 75.2276 84.7227 75.7844 84.1417C76.3412 83.5607 76.7729 82.8224 77.0795 81.9267C77.3861 81.031 77.5395 79.9699 77.5395 78.7434ZM81.8969 84.2507C82.0986 84.525 82.3407 84.7711 82.6231 84.989C82.9136 85.2149 83.2525 85.3965 83.6398 85.5337C84.0191 85.6789 84.4467 85.7515 84.9228 85.7515C85.407 85.7515 85.8468 85.6668 86.2421 85.4974C86.6295 85.3279 86.9603 85.0979 87.2347 84.8074C87.509 84.5169 87.7188 84.178 87.8641 83.7907C88.0093 83.3953 88.086 82.9757 88.094 82.5319C88.086 81.8541 87.9084 81.3175 87.5615 80.9221C87.2145 80.5186 86.7828 80.1837 86.2664 79.9175C85.7499 79.6512 85.1931 79.4091 84.596 79.1912C83.9989 78.9734 83.4421 78.695 82.9257 78.3561C82.4092 78.0252 81.9775 77.6016 81.6306 77.0852C81.2836 76.5687 81.1101 75.8748 81.1101 75.0033C81.1101 74.3819 81.219 73.8171 81.4369 73.3087C81.6628 72.8004 81.9856 72.3606 82.4052 71.9894C82.8248 71.6263 83.3291 71.3398 83.9182 71.13C84.5153 70.9202 85.181 70.8153 85.9153 70.8153C86.6254 70.8153 87.2387 70.9001 87.7551 71.0695C88.2716 71.239 88.7517 71.5012 89.1955 71.8563C89.0664 72.1064 88.9575 72.3727 88.8687 72.6551C88.7799 72.9376 88.6912 73.2926 88.6024 73.7203H88.3361C88.2554 73.5105 88.1546 73.2845 88.0335 73.0425C87.9044 72.8004 87.735 72.5744 87.5252 72.3646C87.3073 72.1629 87.0531 71.9894 86.7626 71.8442C86.4641 71.707 86.109 71.6384 85.6975 71.6384C85.2859 71.6384 84.9067 71.703 84.5597 71.8321C84.2127 71.9692 83.9101 72.1589 83.6519 72.4009C83.3937 72.643 83.192 72.9335 83.0467 73.2724C82.9095 73.6113 82.841 73.9825 82.841 74.386C82.841 75.0799 83.0144 75.6246 83.3614 76.02C83.7084 76.4235 84.1401 76.7624 84.6565 77.0367C85.173 77.303 85.7298 77.5451 86.3269 77.763C86.924 77.9728 87.4808 78.235 87.9972 78.5497C88.5136 78.8564 88.9454 79.2558 89.2923 79.748C89.6393 80.2322 89.8128 80.8817 89.8128 81.6967C89.8128 82.3746 89.6918 83.0161 89.4497 83.6212C89.2076 84.2264 88.8526 84.755 88.3845 85.2069C87.9246 85.6587 87.3557 86.0057 86.6779 86.2478C86.0081 86.4899 85.2456 86.6109 84.3903 86.6109C83.4704 86.6109 82.728 86.4899 82.1631 86.2478C81.5902 86.0057 81.1141 85.7273 80.7349 85.4126C80.864 85.0737 80.9568 84.7671 81.0133 84.4927C81.0617 84.2184 81.1101 83.8674 81.1585 83.4397H81.4248C81.5378 83.706 81.6951 83.9763 81.8969 84.2507V84.2507ZM97.5472 66.7847C97.9022 66.4297 98.2331 66.2522 98.5397 66.2522C98.693 66.2522 98.8544 66.3127 99.0239 66.4337C99.1933 66.5548 99.278 66.7323 99.278 66.9663C99.278 67.2326 99.1893 67.4424 99.0117 67.5957C98.8342 67.749 98.6567 67.8862 98.4792 68.0072L95.2232 70.0891H94.2912L97.5472 66.7847ZM92.0762 76.8189C92.0762 75.8425 92.0561 74.8822 92.0157 73.9381C91.9834 72.994 91.9431 72.0499 91.8947 71.1058C92.5644 71.13 93.2261 71.1542 93.8797 71.1785C94.5333 71.2027 95.195 71.2148 95.8647 71.2148C96.5264 71.2148 97.1841 71.2027 97.8377 71.1785C98.4832 71.1542 99.1409 71.13 99.8106 71.1058C99.7622 71.3237 99.738 71.5456 99.738 71.7716C99.738 71.9894 99.7622 72.2113 99.8106 72.4373C99.3345 72.405 98.8988 72.3727 98.5034 72.3404C98.1161 72.3162 97.7045 72.288 97.2688 72.2557C96.833 72.2234 96.357 72.1952 95.8405 72.171C95.3241 72.1548 94.7028 72.1468 93.9765 72.1468C93.9604 72.6148 93.9443 73.0626 93.9281 73.4903C93.9039 73.918 93.8918 74.4062 93.8918 74.9549C93.8918 75.5359 93.8958 76.0967 93.9039 76.6373C93.912 77.186 93.916 77.6016 93.916 77.884C94.5615 77.884 95.1425 77.8759 95.659 77.8598C96.1754 77.8437 96.6475 77.8235 97.0751 77.7993C97.5109 77.7831 97.9063 77.763 98.2613 77.7388C98.6244 77.7146 98.9674 77.6863 99.2901 77.654C99.2498 77.88 99.2296 78.11 99.2296 78.344C99.2296 78.5699 99.2498 78.7918 99.2901 79.0097C98.9109 78.9693 98.4671 78.933 97.9587 78.9007C97.4503 78.8685 96.9379 78.8483 96.4215 78.8402C95.9132 78.8321 95.4371 78.8281 94.9933 78.8281C94.5414 78.82 94.1823 78.816 93.916 78.816C93.916 78.9451 93.912 79.0863 93.9039 79.2396C93.8958 79.393 93.8918 79.5907 93.8918 79.8327V82.0235C93.8918 82.8627 93.8958 83.5567 93.9039 84.1054C93.912 84.6541 93.9241 85.0656 93.9402 85.34H95.4895C96.0463 85.34 96.595 85.3319 97.1356 85.3158C97.6763 85.2916 98.1846 85.2593 98.6607 85.219C99.1449 85.1867 99.5645 85.1342 99.9195 85.0616C99.8873 85.1584 99.8671 85.2714 99.859 85.4005C99.851 85.5296 99.8469 85.6426 99.8469 85.7394C99.8469 85.9815 99.8711 86.1752 99.9195 86.3204C99.2498 86.2881 98.5881 86.272 97.9345 86.272H93.916C93.2463 86.272 92.5725 86.2881 91.8947 86.3204C91.9431 85.3763 91.9834 84.4362 92.0157 83.5002C92.0561 82.5561 92.0762 81.5999 92.0762 80.6316V76.8189Z" fill="#3AB5E6"></path><path fill-rule="evenodd" clip-rule="evenodd" d="M38.7465 68.8666C38.69 68.8989 38.6214 68.9231 38.5407 68.9392C38.4681 68.9634 38.3834 68.9836 38.2865 68.9998C38.1978 69.0159 38.1009 69.024 37.996 69.024C37.7782 69.024 37.5764 68.9917 37.3909 68.9271C37.2053 68.8626 37.0439 68.7658 36.9067 68.6366C36.7695 68.5075 36.6646 68.3502 36.592 68.1646C36.5113 67.979 36.471 67.7692 36.471 67.5352C36.471 67.3012 36.5113 67.0914 36.592 66.9058C36.6646 66.7202 36.7695 66.5628 36.9067 66.4337C37.0439 66.3046 37.2093 66.2078 37.403 66.1432C37.5966 66.0706 37.8064 66.0343 38.0324 66.0343C38.218 66.0343 38.3874 66.0545 38.5407 66.0948C38.686 66.1352 38.8191 66.1796 38.9402 66.228C38.9159 66.2683 38.8958 66.3208 38.8796 66.3853C38.8716 66.4579 38.8635 66.5144 38.8554 66.5548L38.8312 66.5669C38.7989 66.5346 38.7586 66.4943 38.7102 66.4458C38.6618 66.4055 38.6053 66.3652 38.5407 66.3248C38.4681 66.2925 38.3914 66.2602 38.3108 66.228C38.2301 66.2038 38.1373 66.1917 38.0324 66.1917C37.871 66.1917 37.7217 66.2199 37.5845 66.2764C37.4393 66.3248 37.3142 66.4055 37.2093 66.5185C37.1044 66.6314 37.0237 66.7686 36.9672 66.93C36.9107 67.0995 36.8825 67.3012 36.8825 67.5352C36.8825 67.7692 36.9107 67.9709 36.9672 68.1404C37.0237 68.3098 37.1044 68.447 37.2093 68.5519C37.3142 68.6649 37.4393 68.7496 37.5845 68.8061C37.7217 68.8545 37.871 68.8787 38.0324 68.8787C38.1373 68.8787 38.2301 68.8666 38.3108 68.8424C38.3995 68.8182 38.4762 68.79 38.5407 68.7577C38.6133 68.7173 38.6779 68.677 38.7344 68.6366C38.7909 68.5963 38.8393 68.56 38.8796 68.5277L38.8917 68.5519L38.8554 68.794C38.8312 68.8182 38.7949 68.8424 38.7465 68.8666V68.8666ZM39.6785 66.6395C39.6704 66.462 39.6623 66.2804 39.6543 66.0948C39.6946 66.0948 39.7309 66.0989 39.7632 66.1069C39.7955 66.1069 39.8278 66.1069 39.86 66.1069C39.8923 66.1069 39.9246 66.1069 39.9569 66.1069C39.9972 66.0989 40.0335 66.0948 40.0658 66.0948C40.0577 66.2804 40.0497 66.462 40.0416 66.6395C40.0335 66.809 40.0295 66.9865 40.0295 67.1721C40.0295 67.5271 40.0335 67.8338 40.0416 68.092C40.0416 68.3502 40.0416 68.5802 40.0416 68.7819C40.2433 68.7819 40.433 68.7819 40.6105 68.7819C40.788 68.7738 40.9817 68.7577 41.1915 68.7335C41.1834 68.7819 41.1794 68.8222 41.1794 68.8545C41.1794 68.8868 41.1834 68.9231 41.1915 68.9634C41.0624 68.9634 40.9373 68.9634 40.8163 68.9634H40.0416C39.9206 68.9634 39.7915 68.9634 39.6543 68.9634C39.6623 68.794 39.6704 68.6205 39.6785 68.443C39.6866 68.2655 39.6906 68.0839 39.6906 67.8983V67.1721C39.6906 66.9865 39.6866 66.809 39.6785 66.6395V66.6395ZM41.9782 67.1721C41.9782 66.9865 41.9742 66.809 41.9661 66.6395C41.9581 66.462 41.95 66.2804 41.9419 66.0948C41.9823 66.0948 42.0186 66.0989 42.0509 66.1069C42.0831 66.1069 42.1154 66.1069 42.1477 66.1069C42.18 66.1069 42.2163 66.1069 42.2566 66.1069C42.2889 66.0989 42.3212 66.0948 42.3534 66.0948C42.3454 66.2804 42.3373 66.462 42.3292 66.6395C42.3212 66.809 42.3171 66.9865 42.3171 67.1721V67.8983C42.3171 68.0839 42.3212 68.2655 42.3292 68.443C42.3373 68.6205 42.3454 68.794 42.3534 68.9634C42.2889 68.9634 42.2203 68.9634 42.1477 68.9634C42.0751 68.9634 42.0065 68.9634 41.9419 68.9634C41.95 68.794 41.9581 68.6205 41.9661 68.443C41.9742 68.2655 41.9782 68.0839 41.9782 67.8983V67.1721ZM42.4745 65.2718C42.5471 65.1991 42.6117 65.1628 42.6681 65.1628C42.6924 65.1628 42.7206 65.1749 42.7529 65.1991C42.7852 65.2233 42.8013 65.2597 42.8013 65.3081C42.8013 65.3565 42.7852 65.3928 42.7529 65.417C42.7206 65.4493 42.6883 65.4775 42.656 65.5017L42.0387 65.8891H41.8693L42.4745 65.2718ZM44.6653 67.8862C44.3022 67.4908 43.9391 67.1035 43.5759 66.7242C43.5759 66.7969 43.5759 66.9018 43.5759 67.0389C43.5679 67.168 43.5638 67.3456 43.5638 67.5715C43.5638 67.628 43.5679 67.7006 43.5759 67.7894C43.5759 67.8781 43.5759 67.9669 43.5759 68.0557C43.5759 68.1525 43.5759 68.2493 43.5759 68.3461C43.584 68.443 43.588 68.5358 43.588 68.6245C43.588 68.7052 43.5921 68.7779 43.6001 68.8424C43.6001 68.907 43.6001 68.9473 43.6001 68.9634C43.5598 68.9634 43.5114 68.9634 43.4549 68.9634C43.4065 68.9634 43.3581 68.9634 43.3097 68.9634C43.3097 68.9392 43.3137 68.8908 43.3218 68.8182C43.3298 68.7375 43.3379 68.6447 43.346 68.5398C43.346 68.4349 43.35 68.3219 43.3581 68.2009C43.3661 68.0799 43.3742 67.9588 43.3823 67.8378C43.3823 67.7087 43.3863 67.5876 43.3944 67.4747C43.3944 67.3536 43.3944 67.2487 43.3944 67.16C43.3944 66.8937 43.3944 66.6637 43.3944 66.47C43.3944 66.2764 43.3903 66.1311 43.3823 66.0343H43.4428C43.6123 66.2199 43.7938 66.4176 43.9875 66.6274C44.1811 66.8372 44.3748 67.047 44.5685 67.2568C44.7541 67.4585 44.9316 67.6522 45.101 67.8378C45.2786 68.0153 45.4278 68.1686 45.5489 68.2977V67.7289C45.5489 67.4384 45.5489 67.1559 45.5489 66.8816C45.5408 66.5992 45.5327 66.3369 45.5247 66.0948C45.5731 66.1029 45.6175 66.1069 45.6578 66.1069C45.6901 66.1069 45.7345 66.1029 45.791 66.0948C45.791 66.1513 45.7869 66.2441 45.7788 66.3732C45.7708 66.4943 45.7627 66.6234 45.7546 66.7605C45.7466 66.8977 45.7385 67.0349 45.7304 67.1721C45.7304 67.3093 45.7304 67.4182 45.7304 67.4989V67.741C45.7304 67.8378 45.7304 67.9386 45.7304 68.0436C45.7304 68.1485 45.7304 68.2534 45.7304 68.3583C45.7304 68.4632 45.7345 68.56 45.7425 68.6487C45.7425 68.7375 45.7425 68.8142 45.7425 68.8787V69.024H45.682C45.3592 68.6528 45.0203 68.2735 44.6653 67.8862V67.8862ZM46.7714 66.6395C46.7633 66.462 46.7552 66.2804 46.7472 66.0948C46.7875 66.0948 46.8238 66.0989 46.8561 66.1069C46.8884 66.1069 46.9206 66.1069 46.9529 66.1069C46.9852 66.1069 47.0175 66.1069 47.0498 66.1069C47.0901 66.0989 47.1264 66.0948 47.1587 66.0948C47.1506 66.2804 47.1426 66.462 47.1345 66.6395C47.1264 66.809 47.1224 66.9865 47.1224 67.1721V67.8983C47.1224 68.0839 47.1264 68.2655 47.1345 68.443C47.1426 68.6205 47.1506 68.794 47.1587 68.9634C47.0941 68.9634 47.0255 68.9634 46.9529 68.9634C46.8803 68.9634 46.8117 68.9634 46.7472 68.9634C46.7552 68.794 46.7633 68.6205 46.7714 68.443C46.7794 68.2655 46.7835 68.0839 46.7835 67.8983V67.1721C46.7835 66.9865 46.7794 66.809 46.7714 66.6395ZM50.1847 68.8666C50.1282 68.8989 50.0636 68.9231 49.991 68.9392C49.9103 68.9634 49.8256 68.9836 49.7368 68.9998C49.64 69.0159 49.5391 69.024 49.4342 69.024C49.2164 69.024 49.0146 68.9917 48.829 68.9271C48.6434 68.8626 48.482 68.7658 48.3449 68.6366C48.2158 68.5075 48.1109 68.3502 48.0302 68.1646C47.9575 67.979 47.9212 67.7692 47.9212 67.5352C47.9212 67.3012 47.9575 67.0914 48.0302 66.9058C48.1109 66.7202 48.2198 66.5628 48.357 66.4337C48.4942 66.3046 48.6555 66.2078 48.8411 66.1432C49.0348 66.0706 49.2486 66.0343 49.4826 66.0343C49.6602 66.0343 49.8256 66.0545 49.9789 66.0948C50.1322 66.1352 50.2654 66.1796 50.3783 66.228C50.3541 66.2683 50.338 66.3208 50.3299 66.3853C50.3138 66.4579 50.3017 66.5144 50.2936 66.5548L50.2694 66.5669C50.2371 66.5346 50.1968 66.4943 50.1483 66.4458C50.0999 66.4055 50.0434 66.3652 49.9789 66.3248C49.9143 66.2925 49.8377 66.2602 49.7489 66.228C49.6682 66.2038 49.5795 66.1917 49.4826 66.1917C49.3132 66.1917 49.1599 66.2199 49.0227 66.2764C48.8855 66.3248 48.7645 66.4055 48.6596 66.5185C48.5547 66.6314 48.474 66.7686 48.4175 66.93C48.3529 67.0995 48.3207 67.3012 48.3207 67.5352C48.3207 67.7692 48.3529 67.9709 48.4175 68.1404C48.474 68.3098 48.5547 68.447 48.6596 68.5519C48.7645 68.6649 48.8855 68.7496 49.0227 68.8061C49.1599 68.8545 49.3132 68.8787 49.4826 68.8787C49.5795 68.8787 49.6682 68.8666 49.7489 68.8424C49.8377 68.8182 49.9184 68.79 49.991 68.7577C50.0556 68.7173 50.1161 68.677 50.1726 68.6366C50.229 68.5963 50.2775 68.56 50.3178 68.5277L50.342 68.5519L50.3057 68.794C50.2815 68.8182 50.2411 68.8424 50.1847 68.8666V68.8666ZM53.2469 68.9634C53.2066 68.9634 53.1703 68.9634 53.138 68.9634H52.908C52.8758 68.9634 52.8394 68.9634 52.7991 68.9634C52.783 68.8989 52.7588 68.8222 52.7265 68.7335C52.6942 68.6447 52.6579 68.5519 52.6175 68.4551C52.5772 68.3502 52.5328 68.2493 52.4844 68.1525C52.4441 68.0476 52.4077 67.9508 52.3755 67.862C52.2867 67.8539 52.1939 67.8499 52.0971 67.8499C52.0083 67.8499 51.9196 67.8499 51.8308 67.8499C51.742 67.8499 51.6573 67.8499 51.5766 67.8499C51.4878 67.8499 51.4031 67.8539 51.3224 67.862C51.2337 68.0799 51.153 68.2856 51.0803 68.4793C51.0077 68.673 50.9553 68.8343 50.923 68.9634C50.8746 68.9634 50.8221 68.9634 50.7656 68.9634C50.7092 68.9634 50.6567 68.9634 50.6083 68.9634C50.8342 68.4793 51.0521 67.9951 51.2619 67.511C51.4798 67.0268 51.6976 66.5346 51.9155 66.0343H51.9881C52.0527 66.1957 52.1253 66.3732 52.206 66.5669C52.2867 66.7525 52.3674 66.9421 52.4481 67.1358C52.5288 67.3294 52.6095 67.519 52.6902 67.7046C52.7709 67.8983 52.8435 68.0758 52.908 68.2372C52.9807 68.3986 53.0452 68.5438 53.1017 68.673C53.1582 68.8021 53.2066 68.8989 53.2469 68.9634V68.9634ZM51.395 67.6683C51.4677 67.6683 51.5443 67.6683 51.625 67.6683C51.7057 67.6764 51.7824 67.6764 51.855 67.6683C51.9276 67.6683 52.0043 67.6683 52.085 67.6683C52.1576 67.6683 52.2343 67.6683 52.3149 67.6683L51.855 66.6032L51.395 67.6683ZM55.0504 67.5352C55.0504 67.3012 55.0908 67.0914 55.1715 66.9058C55.2441 66.7202 55.349 66.5628 55.4862 66.4337C55.6233 66.3046 55.7888 66.2078 55.9824 66.1432C56.1761 66.0706 56.3859 66.0343 56.6118 66.0343C56.8458 66.0343 57.0556 66.0706 57.2412 66.1432C57.4349 66.2078 57.6003 66.3046 57.7375 66.4337C57.8747 66.5628 57.9796 66.7202 58.0522 66.9058C58.1329 67.0914 58.1732 67.3012 58.1732 67.5352C58.1732 67.7773 58.1329 67.9911 58.0522 68.1767C57.9796 68.3623 57.8747 68.5196 57.7375 68.6487C57.6003 68.7698 57.4349 68.8626 57.2412 68.9271C57.0556 68.9917 56.8458 69.024 56.6118 69.024C56.3859 69.024 56.1761 68.9917 55.9824 68.9271C55.7888 68.8626 55.6233 68.7698 55.4862 68.6487C55.349 68.5196 55.2441 68.3623 55.1715 68.1767C55.0908 67.9911 55.0504 67.7773 55.0504 67.5352ZM57.7617 67.5352C57.7617 67.3012 57.7335 67.1035 57.677 66.9421C57.6205 66.7726 57.5398 66.6314 57.4349 66.5185C57.33 66.4055 57.209 66.3248 57.0718 66.2764C56.9265 66.2199 56.7732 66.1917 56.6118 66.1917C56.4504 66.1917 56.3012 66.2199 56.164 66.2764C56.0187 66.3248 55.8937 66.4055 55.7888 66.5185C55.6919 66.6314 55.6112 66.7726 55.5467 66.9421C55.4902 67.1035 55.462 67.3012 55.462 67.5352C55.462 67.7692 55.4902 67.9709 55.5467 68.1404C55.6112 68.3098 55.6919 68.447 55.7888 68.5519C55.8937 68.6649 56.0187 68.7496 56.164 68.8061C56.3012 68.8545 56.4504 68.8787 56.6118 68.8787C56.7732 68.8787 56.9265 68.8545 57.0718 68.8061C57.209 68.7496 57.33 68.6649 57.4349 68.5519C57.5398 68.447 57.6205 68.3098 57.677 68.1404C57.7335 67.9709 57.7617 67.7692 57.7617 67.5352ZM58.96 67.1721C58.96 66.9946 58.9559 66.817 58.9479 66.6395C58.9398 66.462 58.9317 66.2804 58.9237 66.0948C59.0286 66.1029 59.1335 66.1069 59.2384 66.1069C59.3433 66.115 59.4482 66.119 59.5531 66.119C59.658 66.119 59.7629 66.115 59.8678 66.1069C59.9727 66.0989 60.0776 66.0948 60.1825 66.0948C60.4246 66.0948 60.6343 66.1271 60.8119 66.1917C60.9813 66.2562 61.1225 66.349 61.2355 66.47C61.3485 66.583 61.4292 66.7242 61.4776 66.8937C61.5341 67.0712 61.5623 67.2649 61.5623 67.4747C61.5623 67.7571 61.5139 67.9951 61.4171 68.1888C61.3202 68.3744 61.1992 68.5277 61.0539 68.6487C60.9006 68.7617 60.7352 68.8424 60.5577 68.8908C60.3802 68.9473 60.2107 68.9756 60.0493 68.9756C59.9525 68.9756 59.8557 68.9715 59.7588 68.9634C59.6701 68.9634 59.5773 68.9634 59.4804 68.9634H59.2021C59.1133 68.9634 59.0205 68.9675 58.9237 68.9756C58.9317 68.798 58.9398 68.6205 58.9479 68.443C58.9559 68.2655 58.96 68.0839 58.96 67.8983V67.1721ZM59.2989 67.8862C59.2989 68.1928 59.307 68.4914 59.3231 68.7819C59.3876 68.798 59.4683 68.8061 59.5652 68.8061C59.662 68.8142 59.7629 68.8182 59.8678 68.8182C60.0211 68.8182 60.1744 68.8021 60.3277 68.7698C60.481 68.7294 60.6182 68.6609 60.7392 68.564C60.8603 68.4591 60.9612 68.3219 61.0418 68.1525C61.1145 67.975 61.1508 67.749 61.1508 67.4747C61.1508 67.2326 61.1225 67.0309 61.0661 66.8695C61.0015 66.7162 60.9168 66.5951 60.8119 66.5064C60.707 66.4176 60.5859 66.353 60.4488 66.3127C60.3035 66.2804 60.1421 66.2643 59.9646 66.2643C59.8436 66.2643 59.7266 66.2683 59.6136 66.2764C59.5087 66.2845 59.4119 66.2925 59.3231 66.3006C59.315 66.4378 59.311 66.579 59.311 66.7242C59.3029 66.8695 59.2989 67.0188 59.2989 67.1721V67.8862ZM62.1796 67.5231C62.1796 67.2891 62.2159 67.0793 62.2885 66.8937C62.3612 66.7081 62.4661 66.5507 62.6033 66.4216C62.7485 66.2925 62.9139 66.1957 63.0995 66.1311C63.2932 66.0585 63.503 66.0222 63.7289 66.0222C63.9629 66.0222 64.1727 66.0585 64.3583 66.1311C64.552 66.1957 64.7174 66.2925 64.8546 66.4216C64.9917 66.5507 65.1007 66.7081 65.1814 66.8937C65.254 67.0793 65.2903 67.2891 65.2903 67.5231C65.2903 67.7652 65.254 67.979 65.1814 68.1646C65.1007 68.3502 64.9917 68.5075 64.8546 68.6366C64.7174 68.7577 64.552 68.8505 64.3583 68.915C64.1727 68.9796 63.9629 69.0119 63.7289 69.0119C63.503 69.0119 63.2932 68.9796 63.0995 68.915C62.9139 68.8505 62.7485 68.7577 62.6033 68.6366C62.4661 68.5075 62.3612 68.3502 62.2885 68.1646C62.2159 67.979 62.1796 67.7652 62.1796 67.5231ZM64.8788 67.5231C64.8788 67.2891 64.8505 67.0914 64.7941 66.93C64.7376 66.7605 64.6569 66.6193 64.552 66.5064C64.4471 66.3934 64.326 66.3127 64.1889 66.2643C64.0436 66.2078 63.8903 66.1796 63.7289 66.1796C63.5675 66.1796 63.4182 66.2078 63.2811 66.2643C63.1358 66.3127 63.0148 66.3934 62.9179 66.5064C62.813 66.6193 62.7324 66.7605 62.6759 66.93C62.6113 67.0914 62.579 67.2891 62.579 67.5231C62.579 67.7571 62.6113 67.9588 62.6759 68.1283C62.7324 68.2977 62.813 68.4349 62.9179 68.5398C63.0148 68.6528 63.1358 68.7375 63.2811 68.794C63.4182 68.8424 63.5675 68.8666 63.7289 68.8666C63.8903 68.8666 64.0436 68.8424 64.1889 68.794C64.326 68.7375 64.4471 68.6528 64.552 68.5398C64.6569 68.4349 64.7376 68.2977 64.7941 68.1283C64.8505 67.9588 64.8788 67.7571 64.8788 67.5231ZM67.4085 67.8741C67.0454 67.4787 66.6823 67.0914 66.3191 66.7121C66.3191 66.7847 66.3191 66.8897 66.3191 67.0268C66.3111 67.1559 66.307 67.3335 66.307 67.5594C66.307 67.6159 66.307 67.6885 66.307 67.7773C66.3151 67.866 66.3191 67.9548 66.3191 68.0436C66.3191 68.1404 66.3191 68.2372 66.3191 68.334C66.3272 68.4309 66.3312 68.5237 66.3312 68.6124C66.3312 68.6931 66.3353 68.7657 66.3433 68.8303C66.3433 68.8949 66.3433 68.9392 66.3433 68.9634C66.303 68.9554 66.2546 68.9513 66.1981 68.9513C66.1416 68.9513 66.0932 68.9554 66.0529 68.9634C66.0529 68.9312 66.0569 68.8787 66.065 68.8061C66.073 68.7254 66.0811 68.6326 66.0892 68.5277C66.0892 68.4228 66.0932 68.3098 66.1013 68.1888C66.1093 68.0678 66.1174 67.9467 66.1255 67.8257C66.1255 67.7046 66.1295 67.5836 66.1376 67.4626C66.1376 67.3496 66.1376 67.2447 66.1376 67.1479C66.1376 66.8816 66.1376 66.6516 66.1376 66.4579C66.1376 66.2643 66.1335 66.119 66.1255 66.0222H66.186C66.3555 66.2078 66.537 66.4055 66.7307 66.6153C66.9243 66.8251 67.118 67.0349 67.3117 67.2447C67.4973 67.4464 67.6748 67.6401 67.8442 67.8257C68.0137 68.0113 68.163 68.1686 68.2921 68.2977V67.7168C68.2921 67.4263 68.2921 67.1438 68.2921 66.8695C68.284 66.5871 68.2759 66.3248 68.2679 66.0827C68.3163 66.0989 68.3607 66.1069 68.401 66.1069C68.4333 66.1069 68.4777 66.0989 68.5342 66.0827C68.5342 66.1392 68.5301 66.232 68.522 66.3611C68.514 66.4822 68.5059 66.6113 68.4978 66.7484C68.4898 66.8937 68.4817 67.0309 68.4736 67.16C68.4736 67.2971 68.4736 67.4061 68.4736 67.4868V67.741C68.4736 67.8297 68.4736 67.9265 68.4736 68.0314C68.4736 68.1363 68.4736 68.2412 68.4736 68.3461C68.4736 68.451 68.4777 68.5479 68.4857 68.6366C68.4857 68.7254 68.4857 68.8061 68.4857 68.8787V69.0119H68.4252C68.1024 68.6407 67.7635 68.2614 67.4085 67.8741ZM70.0956 66.3006C70.0229 66.3006 69.9463 66.3006 69.8656 66.3006C69.7849 66.3006 69.7042 66.3046 69.6235 66.3127C69.5509 66.3127 69.4783 66.3167 69.4056 66.3248C69.3249 66.3329 69.2564 66.3409 69.1999 66.349C69.216 66.2925 69.2241 66.2481 69.2241 66.2159C69.2241 66.1836 69.216 66.1392 69.1999 66.0827C69.3855 66.0908 69.567 66.0948 69.7445 66.0948C69.914 66.1029 70.0915 66.1069 70.2771 66.1069C70.4627 66.1069 70.6402 66.1029 70.8097 66.0948C70.9872 66.0948 71.1688 66.0908 71.3544 66.0827C71.3382 66.1392 71.3301 66.1836 71.3301 66.2159C71.3301 66.2481 71.3382 66.2925 71.3544 66.349C71.2898 66.3409 71.2212 66.3329 71.1486 66.3248C71.076 66.3167 70.9993 66.3127 70.9186 66.3127C70.846 66.3046 70.7693 66.3006 70.6886 66.3006C70.608 66.3006 70.5313 66.3006 70.4587 66.3006C70.4506 66.583 70.4466 66.8695 70.4466 67.16V67.8862C70.4466 68.0718 70.4506 68.2534 70.4587 68.4309C70.4667 68.6084 70.4748 68.7859 70.4829 68.9634C70.4183 68.9554 70.3497 68.9513 70.2771 68.9513C70.2045 68.9513 70.1359 68.9554 70.0713 68.9634C70.0794 68.7859 70.0875 68.6084 70.0956 68.4309C70.1036 68.2534 70.1077 68.0718 70.1077 67.8862V67.16C70.1077 66.8695 70.1036 66.583 70.0956 66.3006ZM71.657 67.5231C71.657 67.2891 71.6973 67.0793 71.778 66.8937C71.8506 66.7081 71.9555 66.5507 72.0927 66.4216C72.2299 66.2925 72.3953 66.1957 72.589 66.1311C72.7826 66.0585 72.9924 66.0222 73.2184 66.0222C73.4524 66.0222 73.6622 66.0585 73.8478 66.1311C74.0414 66.1957 74.2068 66.2925 74.344 66.4216C74.4812 66.5507 74.5861 66.7081 74.6587 66.8937C74.7394 67.0793 74.7798 67.2891 74.7798 67.5231C74.7798 67.7652 74.7394 67.979 74.6587 68.1646C74.5861 68.3502 74.4812 68.5075 74.344 68.6366C74.2068 68.7577 74.0414 68.8505 73.8478 68.915C73.6622 68.9796 73.4524 69.0119 73.2184 69.0119C72.9924 69.0119 72.7826 68.9796 72.589 68.915C72.3953 68.8505 72.2299 68.7577 72.0927 68.6366C71.9555 68.5075 71.8506 68.3502 71.778 68.1646C71.6973 67.979 71.657 67.7652 71.657 67.5231ZM74.3682 67.5231C74.3682 67.2891 74.34 67.0914 74.2835 66.93C74.227 66.7605 74.1463 66.6193 74.0414 66.5064C73.9365 66.3934 73.8155 66.3127 73.6783 66.2643C73.5331 66.2078 73.3797 66.1796 73.2184 66.1796C73.057 66.1796 72.9077 66.2078 72.7705 66.2643C72.6253 66.3127 72.5002 66.3934 72.3953 66.5064C72.2985 66.6193 72.2178 66.7605 72.1532 66.93C72.0967 67.0914 72.0685 67.2891 72.0685 67.5231C72.0685 67.7571 72.0967 67.9588 72.1532 68.1283C72.2178 68.2977 72.2985 68.4349 72.3953 68.5398C72.5002 68.6528 72.6253 68.7375 72.7705 68.794C72.9077 68.8424 73.057 68.8666 73.2184 68.8666C73.3797 68.8666 73.5331 68.8424 73.6783 68.794C73.8155 68.7375 73.9365 68.6528 74.0414 68.5398C74.1463 68.4349 74.227 68.2977 74.2835 68.1283C74.34 67.9588 74.3682 67.7571 74.3682 67.5231ZM75.5544 66.6274C75.5544 66.4499 75.5504 66.2683 75.5423 66.0827C75.5746 66.0908 75.6069 66.0948 75.6391 66.0948C75.6714 66.1029 75.7037 66.1069 75.736 66.1069C75.7682 66.1069 75.8046 66.1029 75.8449 66.0948C75.8772 66.0948 75.9094 66.0908 75.9417 66.0827C75.9337 66.2683 75.9256 66.4499 75.9175 66.6274C75.9095 66.8049 75.9054 66.9824 75.9054 67.16C75.9054 67.515 75.9095 67.8217 75.9175 68.0799C75.9175 68.3381 75.9175 68.5681 75.9175 68.7698C76.1193 68.7698 76.3089 68.7698 76.4864 68.7698C76.672 68.7617 76.8657 68.7456 77.0674 68.7214C77.0593 68.7698 77.0553 68.8101 77.0553 68.8424C77.0553 68.8747 77.0593 68.915 77.0674 68.9634C76.9464 68.9554 76.8213 68.9513 76.6922 68.9513H75.9175C75.7965 68.9513 75.6714 68.9554 75.5423 68.9634C75.5504 68.7859 75.5544 68.6084 75.5544 68.4309C75.5625 68.2534 75.5665 68.0718 75.5665 67.8862V67.16C75.5665 66.9824 75.5625 66.8049 75.5544 66.6274V66.6274ZM79.5124 65.2597C79.5769 65.1951 79.6374 65.1628 79.6939 65.1628C79.7262 65.1628 79.7585 65.1749 79.7908 65.1991C79.823 65.2233 79.8392 65.2556 79.8392 65.296C79.8392 65.3444 79.823 65.3847 79.7908 65.417C79.7504 65.4493 79.7141 65.4735 79.6818 65.4896L79.0766 65.8891H78.8951L79.5124 65.2597ZM77.6363 67.5231C77.6363 67.281 77.6726 67.0672 77.7452 66.8816C77.8178 66.696 77.9227 66.5386 78.0599 66.4095C78.2052 66.2804 78.3706 66.1836 78.5562 66.119C78.7498 66.0545 78.9596 66.0222 79.1856 66.0222C79.4196 66.0222 79.6294 66.0545 79.815 66.119C80.0086 66.1836 80.1741 66.2804 80.3112 66.4095C80.4484 66.5386 80.5573 66.696 80.638 66.8816C80.7107 67.0672 80.747 67.281 80.747 67.5231C80.747 67.7571 80.7107 67.9669 80.638 68.1525C80.5573 68.3381 80.4484 68.4954 80.3112 68.6245C80.1741 68.7537 80.0086 68.8505 79.815 68.915C79.6294 68.9796 79.4196 69.0119 79.1856 69.0119C78.9596 69.0119 78.7498 68.9796 78.5562 68.915C78.3706 68.8505 78.2052 68.7537 78.0599 68.6245C77.9227 68.4954 77.8178 68.3381 77.7452 68.1525C77.6726 67.9669 77.6363 67.7571 77.6363 67.5231ZM80.3354 67.5231C80.3354 67.2891 80.3072 67.0873 80.2507 66.9179C80.1942 66.7484 80.1135 66.6113 80.0086 66.5064C79.9037 66.3934 79.7827 66.3087 79.6455 66.2522C79.5003 66.2038 79.347 66.1796 79.1856 66.1796C79.0242 66.1796 78.8749 66.2038 78.7377 66.2522C78.5925 66.3087 78.4714 66.3934 78.3746 66.5064C78.2697 66.6113 78.185 66.7484 78.1204 66.9179C78.0639 67.0873 78.0357 67.2891 78.0357 67.5231C78.0357 67.749 78.0639 67.9467 78.1204 68.1162C78.185 68.2856 78.2697 68.4268 78.3746 68.5398C78.4714 68.6528 78.5925 68.7335 78.7377 68.7819C78.8749 68.8384 79.0242 68.8666 79.1856 68.8666C79.347 68.8666 79.5003 68.8384 79.6455 68.7819C79.7827 68.7335 79.9037 68.6528 80.0086 68.5398C80.1135 68.4268 80.1942 68.2856 80.2507 68.1162C80.3072 67.9467 80.3354 67.749 80.3354 67.5231ZM83.7608 66.4337C83.7044 66.3853 83.6358 66.3409 83.5551 66.3006C83.4824 66.2683 83.3977 66.2401 83.3009 66.2159C83.2121 66.1917 83.1153 66.1796 83.0104 66.1796C82.8329 66.1796 82.6715 66.2038 82.5262 66.2522C82.381 66.3087 82.2519 66.3934 82.1389 66.5064C82.0259 66.6113 81.9412 66.7484 81.8847 66.9179C81.8202 67.0873 81.7879 67.2891 81.7879 67.5231C81.7879 67.7248 81.8161 67.9064 81.8726 68.0678C81.9291 68.2372 82.0098 68.3784 82.1147 68.4914C82.2196 68.6044 82.3487 68.6891 82.502 68.7456C82.6553 68.8101 82.8288 68.8424 83.0225 68.8424C83.0871 68.8424 83.1516 68.8384 83.2162 68.8303C83.2727 68.8303 83.3332 68.8222 83.3977 68.8061C83.4542 68.798 83.5107 68.7859 83.5672 68.7698C83.6156 68.7536 83.6559 68.7335 83.6882 68.7093C83.6963 68.6286 83.7003 68.5438 83.7003 68.4551C83.7003 68.3744 83.7003 68.2897 83.7003 68.2009C83.7003 68.1041 83.7003 68.0072 83.7003 67.9104C83.6923 67.8136 83.6842 67.7208 83.6761 67.632C83.7487 67.6401 83.8173 67.6441 83.8819 67.6441C83.9142 67.6441 83.9424 67.6441 83.9666 67.6441C83.9989 67.6441 84.0312 67.6401 84.0634 67.632C84.0554 67.6966 84.0513 67.7974 84.0513 67.9346C84.0433 68.0718 84.0392 68.2534 84.0392 68.4793C84.0392 68.5358 84.0392 68.5923 84.0392 68.6487C84.0473 68.7052 84.0513 68.7617 84.0513 68.8182C83.9868 68.8424 83.9142 68.8666 83.8335 68.8908C83.7447 68.915 83.6519 68.9352 83.5551 68.9513C83.4502 68.9594 83.3493 68.9715 83.2525 68.9877C83.1556 69.0038 83.0669 69.0119 82.9862 69.0119C82.736 69.0119 82.5141 68.9796 82.3205 68.915C82.1187 68.8585 81.9493 68.7658 81.8121 68.6366C81.6749 68.5156 81.57 68.3583 81.4974 68.1646C81.4167 67.979 81.3764 67.7652 81.3764 67.5231C81.3764 67.281 81.4167 67.0672 81.4974 66.8816C81.5781 66.696 81.687 66.5386 81.8242 66.4095C81.9695 66.2804 82.143 66.1836 82.3447 66.119C82.5383 66.0545 82.7603 66.0222 83.0104 66.0222C83.1476 66.0222 83.2726 66.0303 83.3856 66.0464C83.4905 66.0625 83.5873 66.0827 83.6761 66.1069C83.7568 66.1311 83.8294 66.1553 83.894 66.1796C83.9585 66.2118 84.015 66.2401 84.0634 66.2643C84.0473 66.3046 84.0271 66.353 84.0029 66.4095C83.9868 66.4741 83.9747 66.5346 83.9666 66.5911H83.9182C83.8778 66.5346 83.8254 66.4822 83.7608 66.4337V66.4337ZM84.9712 66.6153C84.9632 66.4378 84.9551 66.2562 84.947 66.0706C84.9874 66.0787 85.0237 66.0868 85.056 66.0948C85.0882 66.0948 85.1205 66.0948 85.1528 66.0948C85.1851 66.0948 85.2173 66.0948 85.2496 66.0948C85.2819 66.0868 85.3182 66.0787 85.3586 66.0706C85.3505 66.2562 85.3424 66.4378 85.3343 66.6153C85.3263 66.7928 85.3222 66.9744 85.3222 67.16V67.8862C85.3222 68.0637 85.3263 68.2413 85.3343 68.4188C85.3424 68.6044 85.3505 68.7819 85.3586 68.9513C85.294 68.9433 85.2254 68.9392 85.1528 68.9392C85.0802 68.9392 85.0116 68.9433 84.947 68.9513C84.9551 68.7819 84.9632 68.6044 84.9712 68.4188C84.9793 68.2413 84.9833 68.0637 84.9833 67.8862V67.16C84.9833 66.9744 84.9793 66.7928 84.9712 66.6153V66.6153ZM88.3845 68.8545C88.328 68.8787 88.2635 68.9029 88.1909 68.9271C88.1102 68.9433 88.0214 68.9594 87.9246 68.9756C87.8358 68.9998 87.739 69.0119 87.6341 69.0119C87.4162 69.0119 87.2145 68.9796 87.0289 68.915C86.8433 68.8505 86.6819 68.7537 86.5447 68.6245C86.4076 68.4954 86.3027 68.3381 86.23 68.1525C86.1574 67.9669 86.1211 67.7571 86.1211 67.5231C86.1211 67.281 86.1574 67.0672 86.23 66.8816C86.3027 66.696 86.4076 66.5386 86.5447 66.4095C86.6819 66.2804 86.8473 66.1836 87.041 66.119C87.2347 66.0545 87.4445 66.0222 87.6704 66.0222C87.856 66.0222 88.0254 66.0424 88.1788 66.0827C88.3321 66.115 88.4652 66.1594 88.5782 66.2159C88.554 66.2562 88.5378 66.3087 88.5298 66.3732C88.5136 66.4378 88.5015 66.4943 88.4935 66.5427H88.4692C88.437 66.5104 88.3966 66.4741 88.3482 66.4337C88.2998 66.3934 88.2433 66.353 88.1788 66.3127C88.1061 66.2723 88.0295 66.2401 87.9488 66.2159C87.8681 66.1917 87.7753 66.1796 87.6704 66.1796C87.509 66.1796 87.3597 66.2038 87.2225 66.2522C87.0773 66.3087 86.9563 66.3934 86.8594 66.5064C86.7545 66.6113 86.6698 66.7484 86.6053 66.9179C86.5488 67.0873 86.5205 67.2891 86.5205 67.5231C86.5205 67.749 86.5488 67.9467 86.6053 68.1162C86.6698 68.2856 86.7545 68.4268 86.8594 68.5398C86.9563 68.6528 87.0773 68.7335 87.2225 68.7819C87.3597 68.8384 87.509 68.8666 87.6704 68.8666C87.7753 68.8666 87.8681 68.8545 87.9488 68.8303C88.0375 68.8061 88.1182 68.7738 88.1909 68.7335C88.2554 68.7012 88.3159 68.6649 88.3724 68.6245C88.4289 68.5842 88.4773 68.5479 88.5177 68.5156L88.5419 68.5277L88.5056 68.7819C88.4733 68.8061 88.4329 68.8303 88.3845 68.8545V68.8545ZM91.4468 68.9513C91.4065 68.9433 91.3661 68.9392 91.3258 68.9392H91.1079C91.0756 68.9392 91.0393 68.9433 90.999 68.9513C90.9828 68.8868 90.9586 68.8101 90.9263 68.7214C90.886 68.6326 90.8456 68.5358 90.8053 68.4309C90.765 68.334 90.7246 68.2332 90.6843 68.1283C90.6439 68.0314 90.6076 67.9346 90.5753 67.8378C90.4866 67.8378 90.3938 67.8378 90.2969 67.8378C90.2082 67.8378 90.1194 67.8378 90.0307 67.8378C89.9419 67.8378 89.8572 67.8378 89.7765 67.8378C89.6877 67.8378 89.603 67.8378 89.5223 67.8378C89.4335 68.0557 89.3528 68.2655 89.2802 68.4672C89.2076 68.6608 89.1511 68.8222 89.1108 68.9513C89.0704 68.9433 89.022 68.9392 88.9655 68.9392C88.909 68.9392 88.8566 68.9433 88.8082 68.9513C89.0341 68.4591 89.252 67.975 89.4618 67.4989C89.6796 67.0147 89.8975 66.5225 90.1154 66.0222H90.188C90.2526 66.1836 90.3252 66.3571 90.4059 66.5427C90.4866 66.7363 90.5673 66.93 90.6479 67.1237C90.7286 67.3093 90.8093 67.4989 90.89 67.6925C90.9626 67.8781 91.0353 68.0557 91.1079 68.2251C91.1805 68.3865 91.2451 68.5317 91.3016 68.6609C91.358 68.79 91.4065 68.8868 91.4468 68.9513ZM89.5949 67.6441C89.6675 67.6441 89.7442 67.6482 89.8249 67.6562C89.8975 67.6562 89.9701 67.6562 90.0428 67.6562C90.1234 67.6562 90.2041 67.6562 90.2848 67.6562C90.3575 67.6562 90.4341 67.6522 90.5148 67.6441L90.0549 66.5911L89.5949 67.6441Z" fill="#162061"></path></g><defs><clipPath id="clip0_11_17"><rect width="115" height="115" fill="white"></rect></clipPath></defs></svg>